<?xml version="1.0" encoding="utf-8"?>
<!-- Generator: Adobe Illustrator 18.0.0, SVG Export Plug-In . SVG Version: 6.00 Build 0)  -->
<!DOCTYPE svg PUBLIC "-//W3C//DTD SVG 1.1//EN" "http://www.w3.org/Graphics/SVG/1.1/DTD/svg11.dtd">
<svg version="1.1" id="Calque_9" xmlns="http://www.w3.org/2000/svg" xmlns:xlink="http://www.w3.org/1999/xlink" x="0px" y="0px"
	 viewBox="0 0 431 730" style="enable-background:new 0 0 431 730;" xml:space="preserve">
<path style="fill:#D29C43;stroke:#1B1B1C;stroke-width:13;stroke-miterlimit:10;" d="M89.752,342.2
	c0,0-49.185,57.384-57.383,127.647c-5.161,40.663,33.961,60.895,49.185,36.303c15.224-24.592,48.014-71.436,48.014-71.436
	L89.752,342.2z"/>
<path style="fill:#D29C43;stroke:#1B1B1C;stroke-width:13;stroke-miterlimit:10;" d="M200.141,655.248
	c-0.843,2.881-3.016,5.332-6.11,7.365V555.088c0-5.664-5.557-10.256-12.412-10.256h-35.682c-6.855,0-12.412,4.592-12.412,10.256
	v110.628c-3.161-1.459-5.479-3.272-6.563-5.428c0,0-35.943,43.582,18.532,49.596C164.691,712.004,228.241,704.226,200.141,655.248z"
	/>
<path style="fill:#D29C43;stroke:#1B1B1C;stroke-width:13;stroke-miterlimit:10;" d="M306.279,659.922
	c-0.829,3.19-2.966,5.898-6.007,8.148V549.112c0-6.267-5.464-11.347-12.203-11.347h-35.077c-6.74,0-12.203,5.08-12.203,11.347
	v122.392c-3.107-1.615-5.387-3.619-6.453-6.006c0,0-35.336,48.219,18.218,54.869C271.429,722.711,333.905,714.107,306.279,659.922z"
	/>
<path style="fill:#D29C43;stroke:#1B1B1C;stroke-width:13;stroke-miterlimit:10;" d="M340.402,400.363
	c0,79.257-54.121,217.04-125.601,217.04c-71.48,0-131.977-152.015-131.977-231.273c0-79.257,50.933-27.278,122.413-27.278
	C276.719,358.852,340.402,321.106,340.402,400.363z"/>
<path style="fill:#D29C43;stroke:#1B1B1C;stroke-width:13;stroke-miterlimit:10;" d="M13.961,162.729
	c0-29.705,26.149-58.957,55.854-58.957c29.705,0,68.266,24.081,68.266,53.785c0,29.705-41.664,67.232-71.369,67.232
	C37.007,224.789,13.961,192.434,13.961,162.729z"/>
<path style="fill:#D29C43;stroke:#1B1B1C;stroke-width:13;stroke-miterlimit:10;" d="M296.334,172.038
	c0-29.705,26.149-58.957,55.854-58.957c29.704,0,68.266,24.081,68.266,53.785c0,29.705-41.664,67.232-71.369,67.232
	C319.381,234.099,296.334,201.743,296.334,172.038z"/>
<path style="fill:#D29C43;stroke:#1B1B1C;stroke-width:13;stroke-miterlimit:10;" d="M46.804,268.176
	c0-66.558,87.816-137.511,166.506-137.511c78.689,0,159.475,70.074,159.475,136.634c0,66.559-80.148,97.471-158.837,97.471
	C135.258,364.769,46.804,334.736,46.804,268.176z"/>
<path style="fill:#FFFFFF;stroke:#1B1B1C;stroke-width:13;stroke-miterlimit:10;" d="M277.371,306.935
	c0.6,34.811-61.187,30.522-85.462,30.522c-24.274,0-40.899-6.248-40.899-30.522c0-24.274,17.236-31.743,41.51-31.743
	C216.794,275.192,276.761,271.53,277.371,306.935z"/>
<circle style="fill:#1B1B1C;" cx="207.927" cy="286.259" r="9.753"/>
<g>
	<g>
		<path style="fill:#1B1B1C;" d="M201.862,288.047c0.396,10.213-4.415,18.366-12.074,24.818c-4.014,3.382,2.181,5.947,5.112,3.478
			c8.821-7.431,15.248-16.977,14.786-28.9C209.53,283.404,201.73,284.639,201.862,288.047L201.862,288.047z"/>
	</g>
</g>
<g>
	<g>
		<path style="fill:#1B1B1C;" d="M202.657,293.257c1.089,9.711,9.528,14.928,16.626,20.382c1.606,1.235,8.19-1.866,7.304-2.546
			c-6.972-5.358-15.133-10.376-16.202-19.907C210.245,289.941,202.451,291.417,202.657,293.257L202.657,293.257z"/>
	</g>
</g>
<ellipse style="fill:#1B1B1C;" cx="286.336" cy="247.544" rx="21.376" ry="20.686"/>
<ellipse style="fill:#1B1B1C;" cx="126.703" cy="250.648" rx="21.376" ry="20.686"/>
<path style="fill:#1B1B1C;" d="M33.355,128.597c0,0,47.579-29.479,68.524,41.373c14.826-8.62,35.512-22.066,35.512-22.066
	S73.694,60.848,33.355,128.597z"/>
<path style="fill:#1B1B1C;" d="M405.801,145.318c0,0-43.576-35.998-75.895,30.442c-13.206-10.941-31.397-27.608-31.397-27.608
	S377.158,71.855,405.801,145.318z"/>
<path style="opacity:0.66;fill:#EAAD54;" d="M174.563,619.719c0,0,6.314,5.488,7.962,6.334c0,11.822,0.549,51.09,0.549,51.09
	s-3.569,7.602-8.786,4.644C173.74,661.097,174.563,619.719,174.563,619.719z"/>
<path style="opacity:0.66;fill:#EAAD54;" d="M279.194,602.106c0,0,6.501-14.808,8.046-13.963c0,11.821-0.236,70.554-0.236,70.554
	s-3.35,7.602-8.244,4.645C278.244,642.652,279.194,602.106,279.194,602.106z"/>
<path style="fill:#D29C43;stroke:#1B1B1C;stroke-width:13;stroke-miterlimit:10;" d="M311.849,354.771
	c-6.206-3.103-57.176,51.019-65.374,121.283c-5.16,40.663,33.962,60.895,49.185,36.302c15.225-24.591,40.668-72.08,40.668-72.08
	S351.498,363.045,311.849,354.771z"/>
<rect x="249.91" y="455.014" transform="matrix(0.9266 0.3761 -0.3761 0.9266 196.7912 -71.4669)" style="fill:#EF364C;" width="63.106" height="26.695"/>
<circle style="fill:#EF364C;" cx="282.887" cy="466.134" r="23.79"/>
<circle style="fill:#FFFFFF;" cx="282.37" cy="467.168" r="16.893"/>
<path style="fill:#1B1B1C;" d="M93.863,346.324c0,0,14.222,2.586,81.454,108.088c20.687-27.927,155.021-87.444,170.147-101.02
	c10.86-10.17,0.346-20.169-5.344-16.549c-1.455,0.926-67.576,31.72-102.055,32.41C196.004,359.943,162.129,350.461,93.863,346.324z"
	/>
<path style="fill:#222223;" d="M131.875,367.872c0,0,38.615,60.681,44.131,71.714c13.102-13.791,39.305-61.37,62.06-70.335
	C186.349,370.63,151.872,376.147,131.875,367.872z"/>
<path style="fill:#EAAD54;" d="M119.808,401.315c0,0-25.169-37.408-25.169-2.241c7.24,38.271,31.03,128.774,67.231,174.285
	C164.973,507.162,119.808,401.315,119.808,401.315z"/>
<polygon style="fill:#2B2B2B;" points="272.101,213.337 146.526,214.753 147.925,183.848 271.316,183.848 "/>
<path style="fill:#F04B4C;stroke:#1B1B1C;stroke-width:9;stroke-miterlimit:10;" d="M138.057,213.781
	c0,0-49.406,6.808-66.074-12.639C60.869,156.692,34.222,28.232,203.69,11.564c40.053-1.936,123.502,35.919,133.555,70.527
	c6.909,22.931,7.404,26.857,10.185,36.116c2.777,9.26,17.52,88.874-23.23,92.58c-43.525,0-52.765,5.316-55.544-7.65
	c-0.928-12.965,9.85-67.921-13.303-68.846c-18.521-0.925-100.538-14.231-104.243,14.476
	C148.331,178.401,159.354,211.002,138.057,213.781z"/>
<path style="fill:#1B1B1C;" d="M250.699,199.195c0,7.131-5.741,12.911-12.822,12.911h-78.349c-7.08,0-12.822-5.78-12.822-12.911l0,0
	c0-7.132,5.742-12.913,12.822-12.913h78.349C244.958,186.282,250.699,192.062,250.699,199.195L250.699,199.195z"/>
<g>
	<g>
		<path style="fill:#FFFFFF;" d="M252.072,187.348c-0.032,8.132-0.411,16.258-0.444,24.39c-0.003,0.724,1.46,0.476,1.463-0.129
			c0.033-8.132,0.412-16.257,0.444-24.39C253.538,186.495,252.074,186.743,252.072,187.348L252.072,187.348z"/>
	</g>
</g>
<g>
	<g>
		<path style="fill:#FFFFFF;" d="M258.953,187.089c-0.032,8.28-0.412,16.554-0.444,24.835c-0.001,0.194,1.447,0,1.449-0.388
			c0.033-8.28,0.412-16.554,0.444-24.835C260.403,186.508,258.955,186.701,258.953,187.089L258.953,187.089z"/>
	</g>
</g>
<path style="fill:none;stroke:#828282;stroke-width:9;stroke-miterlimit:10;" d="M169.543,194.046h68.142
	c3.018,0,5.461,2.284,5.461,5.101l0,0c0,2.815-2.443,5.1-5.461,5.1h-68.142V194.046z"/>
<circle style="fill:#666766;" cx="169.654" cy="199.479" r="3.378"/>
<circle style="fill:#BFBFBF;" cx="169.654" cy="199.479" r="2.185"/>
<circle style="fill:#666766;" cx="180.879" cy="199.479" r="3.378"/>
<circle style="fill:#BFBFBF;" cx="180.879" cy="199.479" r="2.185"/>
<circle style="fill:#666766;" cx="191.707" cy="199.479" r="3.378"/>
<circle style="fill:#BFBFBF;" cx="191.708" cy="199.479" r="2.185"/>
<circle style="fill:#666766;" cx="203.032" cy="199.479" r="3.377"/>
<circle style="fill:#BFBFBF;" cx="203.032" cy="199.479" r="2.185"/>
<circle style="fill:#666766;" cx="214.457" cy="199.479" r="3.378"/>
<circle style="fill:#BFBFBF;" cx="214.456" cy="199.479" r="2.186"/>
<circle style="fill:#666766;" cx="226.476" cy="199.479" r="3.378"/>
<circle style="fill:#BFBFBF;" cx="226.476" cy="199.479" r="2.186"/>
<circle style="fill:#666766;" cx="238.496" cy="199.479" r="3.378"/>
<circle style="fill:#BFBFBF;" cx="238.497" cy="199.479" r="2.186"/>
<g>
	<g>
		<path style="fill:#1B1B1C;" d="M202.724,10.049c0.135,19.152,4.062,37.972,5.224,57.052c1.209,19.853,1.427,39.694,1.428,59.578
			c0,0.375,1.932,0.078,1.932-0.518c0-19.228-0.064-38.456-1.331-57.65c-1.3-19.694-5.182-39.216-5.321-58.98
			C204.653,9.152,202.72,9.455,202.724,10.049L202.724,10.049z"/>
	</g>
</g>
<path style="fill:#191A1A;stroke:#1B1B1C;stroke-width:10;stroke-linecap:round;stroke-linejoin:round;stroke-miterlimit:10;" d="
	M244.868,235.058c0,0,31.626-9.165,83.475-9.387c2.089,0.133,0.638,1.799-0.914,1.835
	C327.429,227.506,277.078,228.687,244.868,235.058z"/>
<path style="fill:#191A1A;" d="M210.827,190.556"/>
<path style="fill:#191A1A;" d="M202.209,188.487"/>
<path style="fill:#191A1A;" d="M54.462,429.834c-0.369-0.068-0.915,0.723-0.946,1.238c0.015,0.626-0.442,1.419-0.442,1.419
	c-1.973,3.552-3.523,7.902-4.258,12.403l-1.762,5.457c-1.668,4.243-2.557,8.776-2.677,12.837c0,0-0.012,0.916-0.343,1.445
	c-0.237,0.46-0.171,1.419,0.18,1.547c0,0,1.898,0.635,2.173,0.658c0,0,0.459,0.091,0.669-0.09c0.209-0.184,1.331-1.497,2.709-1.042
	c0,0,5.917,1.483,7.942-2.059c0,0,3.104-6.418-0.633-11.088c0,0-1.293-1.936-4.406-3.591l0.269-0.018
	c3.521,0.171,5.623-0.835,5.623-0.835c5.598-2.106,6.208-9.208,6.208-9.208c0.068-4.08-5.775-5.827-5.775-5.827
	c-1.418-0.312-1.71-2.015-1.797-2.279c-0.088-0.265-0.53-0.421-0.53-0.421C56.418,430.259,54.462,429.834,54.462,429.834z
	 M51.269,450.806c0.357,0.173,1.917,0.994,2.079,1.077c-0.002-0.001-0.002-0.001,0.005,0.004c0.014,0.006,0.011,0.005-0.005-0.004
	c0.047,0.038,2.037,1.238,2.037,1.238c2.983,2.111,1.918,6.911,1.918,6.911c-0.603,3.012-1.684,3.777-1.684,3.777
	c-1.626,1.086-5.106,0.335-6.763-0.418c-1.764-0.716-1.879-3.227-1.88-4.207c0.401-7.677,2.485-8.652,2.485-8.652
	C50.034,450.272,50.596,450.519,51.269,450.806z M63.102,437.535c0,0,0.539,1.209-0.482,4.107c0,0-1.535,4.668-5.179,4.96
	c0,0-2.324,0.017-2.384,0.024c0.018,0.001,0.02,0.001,0.005,0.001c-0.009-0.001-0.008-0.001-0.005-0.001
	c-0.182-0.011-1.942-0.103-2.337-0.136c-0.727-0.097-1.335-0.173-1.696-0.686c0,0-1.293-1.905,2.284-8.708
	c0.503-0.843,1.885-2.942,3.767-2.656C58.883,434.639,62.258,435.77,63.102,437.535z"/>
<g>
	<g>
		<path style="fill:#191A1A;" d="M60.826,462.055c1.484,0.369,2.95,0.803,4.434,1.171c0.478,0.119,1.029,0.023,1.366-0.366
			c0.274-0.316,0.2-0.813-0.248-0.925c-1.484-0.369-2.95-0.802-4.434-1.171c-0.478-0.119-1.029-0.023-1.366,0.366
			C60.304,461.447,60.379,461.943,60.826,462.055L60.826,462.055z"/>
	</g>
</g>
<g>
	<g>
		<path style="fill:#191A1A;" d="M61.388,463.006c0.233-1.332,0.664-2.65,1.443-3.766c0.131-0.188,0.294-0.376,0.485-0.505
			c-1.002,0.683-0.898-0.062-0.432,0.751c0.387,0.676,0.447,1.569,0.527,2.323c0.035,0.328,1.925-0.041,1.932-0.518
			c0.01-0.689,0.161-1.271,0.492-1.868c-0.089-0.009-0.178-0.018-0.266-0.027c0.286,0.188,0.493,0.435,0.621,0.739
			c0.136,0.259,0.143,0.583,0.161,0.866c0.085,1.362-0.691,2.765-1.104,4.03c-0.105,0.322,1.748,0.112,1.901-0.356
			c0.563-1.723,2.273-4.885-0.019-6.056c-0.629-0.321-1.84,0.001-2.382,0.377c-0.956,0.663-1.319,1.672-1.335,2.814
			c0.644-0.173,1.288-0.345,1.932-0.518c-0.102-0.96-0.18-2.305-1.041-2.934c-0.545-0.398-1.6-0.042-2.13,0.197
			c-1.787,0.805-2.412,3.227-2.716,4.971C59.428,463.684,61.288,463.574,61.388,463.006L61.388,463.006z"/>
	</g>
</g>
<g>
	<g>
		<path style="fill:#191A1A;" d="M66.777,458.472c0.401,0,2.2-0.784,1.254-0.784C67.63,457.688,65.83,458.472,66.777,458.472
			L66.777,458.472z"/>
	</g>
</g>
<g>
	<g>
		<path style="fill:#191A1A;" d="M62.938,455.471c1.389,0.488,2.822,1.39,4.346,1.181c1.764-0.241,2.407-1.388,2.694-3.033
			c0.086-0.494-1.824-0.158-1.908,0.329c-0.093,0.537-0.208,1.055-0.42,1.558c-0.077,0.183-0.182,0.34-0.314,0.486
			c0.502-0.075,0.601-0.125,0.298-0.151c-0.115-0.024-0.229-0.053-0.341-0.087c-0.949-0.262-1.845-0.727-2.773-1.054
			C64.071,454.544,62.334,455.259,62.938,455.471L62.938,455.471z"/>
	</g>
</g>
<g>
	<g>
		<path style="fill:#191A1A;" d="M64.463,454.83c0.086-0.879,0.33-1.733,0.414-2.612c0.091-0.951-1.872-0.651-1.951,0.17
			c-0.085,0.88-0.329,1.733-0.415,2.612C62.42,455.95,64.383,455.65,64.463,454.83L64.463,454.83z"/>
	</g>
</g>
<g>
	<g>
		<path style="fill:#191A1A;" d="M66.86,455.104c-0.099-0.597-0.219-1.214,0.019-1.794c0.404-0.981-1.535-0.874-1.83-0.158
			c-0.341,0.827-0.264,1.605-0.121,2.469C65.062,456.436,67,455.955,66.86,455.104L66.86,455.104z"/>
	</g>
</g>
<g>
	<g>
		<path style="fill:#191A1A;" d="M68.947,452.389c0.401,0,2.2-0.783,1.254-0.783C69.801,451.606,68.002,452.389,68.947,452.389
			L68.947,452.389z"/>
	</g>
</g>
<g>
	<g>
		<path style="fill:#191A1A;" d="M64.818,448.876c1.533,0.866,3.219,1.384,4.919,1.809c0.587,0.147,2.274-0.746,1.192-1.017
			c-1.586-0.397-3.139-0.897-4.567-1.704C65.834,447.666,64.046,448.44,64.818,448.876L64.818,448.876z"/>
	</g>
</g>
<g>
	<g>
		<path style="fill:#191A1A;" d="M64.045,448.388c1.97-0.092,3.943-0.039,5.913-0.132c0.543-0.026,2.106-0.894,0.822-0.834
			c-1.97,0.093-3.943,0.04-5.913,0.132C64.324,447.58,62.761,448.448,64.045,448.388L64.045,448.388z"/>
	</g>
</g>
<g>
	<g>
		<path style="fill:#191A1A;" d="M69.168,448.575c-0.023-0.137-0.046-0.275-0.068-0.412c-0.117-0.708-2.057-0.24-1.932,0.518
			c0.023,0.137,0.046,0.275,0.068,0.412C67.353,449.8,69.294,449.332,69.168,448.575L69.168,448.575z"/>
	</g>
</g>
<g>
	<g>
		<path style="fill:#191A1A;" d="M70.536,446.492c0.852,0,2.005-1.294,0.698-1.294C70.382,445.198,69.23,446.492,70.536,446.492
			L70.536,446.492z"/>
	</g>
</g>
<g>
	<g>
		<path style="fill:#191A1A;" d="M67.311,443.708c1.316,0.405,2.629,0.796,3.987,1.034c0.318-0.374,0.636-0.748,0.954-1.122
			c-1.888-0.013-3.806-1.372-5.041-2.703c-0.038,0.189-0.076,0.378-0.114,0.567c0.448-0.437,0.605-0.535,1.054-0.032
			c0.391,0.438,0.422,1.145,0.43,1.693c0.009,0.62,1.348,0.185,1.573,0.055c0.954-0.553,1.968-0.992,2.923-1.544
			c0.284-0.164,0.563-0.588,0.158-0.797c-0.423-0.218-0.988-0.052-1.371,0.169c-0.955,0.552-1.968,0.991-2.923,1.544
			c0.524,0.018,1.048,0.037,1.573,0.055c-0.046-3.069-3.086-3.351-4.977-1.506c-0.148,0.144-0.287,0.381-0.114,0.567
			c1.518,1.637,3.8,3.064,6.093,3.08c0.498,0.004,2.082-0.925,0.954-1.122c-1.358-0.238-2.671-0.629-3.987-1.034
			C67.833,442.414,66.207,443.368,67.311,443.708L67.311,443.708z"/>
	</g>
</g>
<g>
	<g>
		<path style="fill:#FFFFFF;" d="M128.152,290.304c-15.481,5.162-31.112,10.388-45.069,19.019c-2.228,1.378,1.125,2.056,2.426,1.252
			c13.368-8.267,28.367-13.272,43.194-18.216C130.962,291.606,130.461,289.535,128.152,290.304L128.152,290.304z"/>
	</g>
</g>
<g>
	<g>
		<path style="fill:#FFFFFF;" d="M85.282,281.138c9.782,15.668,21.833,31.7,38.203,40.938c1.426,0.805,4.844-1.14,2.99-2.187
			c-16.162-9.121-27.988-24.955-37.649-40.43C87.931,278.026,84.235,279.461,85.282,281.138L85.282,281.138z"/>
	</g>
</g>
<path style="fill:#191A1A;" d="M325.726,198.584c-20.41,4.874-44.763,4.391-44.763,4.391s30.576-0.934,39.765-4.587"/>
<path style="fill:#191A1A;" d="M74.624,123.117c0,0-1.707,32.882,9.906,83.415c0.606,2.003,1.897,0.21,1.579-1.309
	C86.109,205.223,75.77,155.93,74.624,123.117z"/>
<path style="fill:#191A1A;stroke:#1B1B1C;stroke-width:3;stroke-linecap:round;stroke-linejoin:round;stroke-miterlimit:10;" d="
	M233.575,351.665c-20.547-4.258-44.875-3.043-44.875-3.043s30.591,0.014,39.886,3.39"/>
<g>
	<path style="fill:#191A1A;" d="M371.195,109.452c0,0,3.568-4.583,1.485-7.442c-1.441,0.17-2.65-2.451-1.004-2.276
		c1.477,0.527,5.615,2.584,3.094,10.762c1.458-2.511,1.315-7.215,3.607-8.892c-0.496,1.924-0.396,7.102-0.132,9.887
		c2.392-3.421,3.507-7.146,3.299-7.866c0.6,1.958,1.074,5.462,0.029,8.914c1.949-2.892,2.659-3.724,2.659-3.724l0.066,4.605
		c0,0-0.458-2.509,3.745-4.437c-0.21,0.95-3.451,4.085-1.155,6.118c3.475-2.466,5.535-2.895,6.71-2.513
		c-1.285,0.616-3.07,2.908-3.276,5.775c-1.75-0.348-10.764-3.828-10.764-3.828L371.195,109.452z"/>
</g>
<g>
	<path style="fill:#191A1A;" d="M9.534,148.33c0,0-4.158-2.962-6.59-1.026c0.203,1.26-2.053,2.419-1.961,0.967
		c0.407-1.316,2.059-5.027,9.335-3.12c-2.26-1.187-6.385-0.884-7.943-2.835c1.709,0.363,6.251,0.081,8.687-0.255
		c-3.094-1.971-6.407-2.811-7.031-2.602c1.697-0.601,4.756-1.148,7.826-0.359c-2.612-1.604-3.369-2.196-3.369-2.196l4.042-0.232
		c0,0-2.186,0.497-4.036-3.123c0.842,0.15,3.715,2.878,5.415,0.786c-2.295-2.959-2.749-4.752-2.457-5.798
		c0.588,1.105,2.668,2.587,5.193,2.662c-0.24,1.548-2.959,9.595-2.959,9.595L9.534,148.33z"/>
</g>
<path style="fill:#ABABAB;stroke:#1B1B1C;stroke-width:3;stroke-miterlimit:10;" d="M171.408,88.928l0.167,0.188h14.507
	c0,0,3.611-0.439,4.008-3.841c0.02-3.445,0-4.801,0-4.801l-0.168-0.188h-14.439c0,0-3.826,0.481-4.076,3.967
	C171.429,87.779,171.408,88.928,171.408,88.928z"/>
<path style="fill:#ABABAB;stroke:#1B1B1C;stroke-width:3;stroke-miterlimit:10;" d="M190.099,98.759l-0.167,0.188h-14.507
	c0,0-3.612-0.438-4.008-3.841c-0.021-3.444,0-4.801,0-4.801l0.167-0.188h14.439c0,0,3.825,0.479,4.075,3.965
	C190.079,97.611,190.099,98.759,190.099,98.759z"/>
<path style="fill:#ABABAB;stroke:#1B1B1C;stroke-width:3;stroke-miterlimit:10;" d="M186.02,108.872h-10.594
	c0,0-3.612-0.438-4.008-3.84c-0.021-3.445,0-4.802,0-4.802l0.167-0.188h18.338l0.157,0.23c0,0,0.037,1.516,0.02,3.736
	C190.55,109.155,186.02,108.872,186.02,108.872z"/>
<path style="fill:#ABABAB;stroke:#1B1B1C;stroke-width:3;stroke-miterlimit:10;" d="M221.15,108.899l-0.178-0.267l7.789-24.655
	c0,0,1.821-3.168,5.627-3.582c0,0,3.882-0.281,5.806,3.85c1.482,4.501,7.685,24.432,7.685,24.432l-0.172,0.223h-4.787
	c0,0-4.606,0.311-8.494-6.768c-0.896,1.6-2.821,5.513-8.003,6.77C222.542,108.854,221.15,108.899,221.15,108.899z"/>
<path style="fill:#ABABAB;stroke:#1B1B1C;stroke-width:3;stroke-miterlimit:10;" d="M198.497,108.647l0.177,0.177h5.211
	c0,0,4.019-0.914,3.916-4.629c-0.103-3.717,0.002-3.175,0.002-3.175l8.447,1.985l0.256-0.138v-5.013c0,0,0.186-3.126-3.824-5.22
	c-2.581-0.619-3.716-0.958-3.716-0.958l4.144-1.077c0,0,3.498-1.945,3.398-5.013c-0.1-3.067,0.001-5.043,0.001-5.043l-0.082-0.079
	c0,0-12.289,2.684-14.627,3.608c-1.455,0.983-3.087,2.261-3.303,4.935V108.647z"/>
<polygon style="fill:#E1A752;stroke:#1B1B1C;stroke-width:3;stroke-miterlimit:10;" points="234.366,81.539 236.927,89.427 
	245.221,89.427 238.513,94.301 241.074,102.187 234.366,97.313 227.657,102.187 230.219,94.301 223.51,89.427 231.804,89.427 "/>
<g>
	<path style="fill:#F04B4C;" d="M253.573,109.578c2.857,11.432-27.281,4.677-34.037,4.157c-16.888-1.039-31.438-2.598-47.027,4.417
		c-1.3,0.52-2.599,1.039-3.638,1.559"/>
	<g>
		<path style="fill:#1B1B1C;" d="M250.675,110.354c1.084,5.473-7.612,4.159-10.897,3.98c-5.708-0.311-11.337-1.341-16.996-2.083
			c-18.696-2.451-37.798-1.875-55.082,6.174c-3.647,1.698-0.316,3.81,2.341,2.572c18.802-8.756,38.954-6.728,58.899-4.089
			c6.109,0.808,29.973,4.225,27.53-8.107C256.049,106.672,250.233,108.123,250.675,110.354L250.675,110.354z"/>
	</g>
</g>
</svg>
