<?xml version="1.0" encoding="utf-8"?>
<!-- Generator: Adobe Illustrator 18.0.0, SVG Export Plug-In . SVG Version: 6.00 Build 0)  -->
<!DOCTYPE svg PUBLIC "-//W3C//DTD SVG 1.1//EN" "http://www.w3.org/Graphics/SVG/1.1/DTD/svg11.dtd">
<svg version="1.1" id="Calque_8" xmlns="http://www.w3.org/2000/svg" xmlns:xlink="http://www.w3.org/1999/xlink" x="0px" y="0px"
	 viewBox="0 0 485 768" style="enable-background:new 0 0 485 768;" xml:space="preserve">
<path style="fill:#ABABAB;stroke:#1B1C1C;stroke-width:13;stroke-linecap:round;stroke-linejoin:round;stroke-miterlimit:10;" d="
	M291.1,535.3c0,0,86-7.4,130.6-138.2c12-47.5,3.9-70.8,54-96.1c-5.8,49,19.7,139.7-97.3,211.3c-58.5,35.8-88.5,34.3-88.5,34.3
	l1.4-16.8"/>
<polyline style="fill:#1B1C1C;" points="469.3,356.5 433.7,343.6 441.8,340.6 432.8,331.4 471.7,306.5 471,343.3 "/>
<path style="fill:#ABABAB;stroke:#1B1C1C;stroke-width:13;stroke-linecap:round;stroke-linejoin:round;stroke-miterlimit:10;" d="
	M416.8,470.2"/>
<path style="fill:#C6C6C5;stroke:#1B1B1C;stroke-width:13;stroke-miterlimit:10;" d="M237.7,717.2c0,6.6-6.3,12-14,12l-15.4,0.5
	c-7.7,0-19.2-5.4-19.2-12.1l-19.1-84.8c0-6.6,20.5-11.7,28.2-11.7h25.6c7.7,0,14,5.4,14,12V717.2z"/>
<path style="fill:#C6C6C5;stroke:#1B1B1C;stroke-width:13;stroke-miterlimit:10;" d="M299.9,720.9c0,6.6-9.1,10.8-17.2,10.8h-19.5
	c-8.1,0-14.6-5.4-14.6-12v-84c0-6.6,6.5-12,14.6-12H290c8.1,0,24.4,5.5,24.4,12.2L299.9,720.9z"/>
<path style="fill:#C6C6C5;stroke:#1B1B1C;stroke-width:13;stroke-miterlimit:10;" d="M237.5,746.3c0,7.7-4.7,14-10.6,14h-36.5
	c-5.8,0-10.6-6.3-10.6-14v-16.9c0-7.7,4.7-14,10.6-14h36.5c5.8,0,10.6,6.3,10.6,14V746.3z"/>
<path style="fill:#C6C6C5;stroke:#1B1B1C;stroke-width:13;stroke-miterlimit:10;" d="M306.9,746c0,7.7-4.8,14-10.7,14h-37
	c-5.9,0-10.7-6.3-10.7-14v-16.9c0-7.7,4.8-14,10.7-14h37c5.9,0,10.7,6.3,10.7,14V746z"/>
<path style="fill:#C6C6C5;stroke:#1B1B1C;stroke-width:13;stroke-miterlimit:10;" d="M367.5,349.7c5.9-1.8,30.6,53.7,27.1,116.2
	c-1.7,36.2-33.8,48.1-41.3,23.6c-7.7-25.1-20.1-68.9-20.1-68.9S331.6,350.9,367.5,349.7z"/>
<path style="fill:#C6C6C5;stroke:#1B1B1C;stroke-width:13;stroke-miterlimit:10;" d="M94.8,371c0,0-10.5,62.5,9.5,121.2
	c11.2,34.1,42.9,36.8,45.7,11.6c2.8-25.2,14.2-90.2,14.2-90.2L94.8,371z"/>
<path style="fill:#EDEDED;stroke:#1B1B1C;stroke-width:13;stroke-miterlimit:10;" d="M142.7,268.9c0,0-27.4,19-45.5,80.2
	c-0.5,1.5,0.3,6.7-0.1,8.3c-0.9,3.3-4.2,4.6-5.1,8.2c-0.7,3.1,1.6,6.1,0.2,8.2c-1.1,2.1-3.1,3.1-3.8,7c-0.3,1.9,2.5,8.4,1.8,11
	c-0.8,3.2-2.6,6.3-2.6,8.9c-0.1,8.2,1.7,13,6.8,14.7c11.9,5,36.2,2.3,37.9,4.9c1.7,2.6-5.2,88.3-3.9,94.5
	c1.3,6.2,10.9,11.5,26.7,11.9c15.8,0.4,169.5-5.3,169.5-5.3s20.2-3.3,25.4-20.1c-0.2-19.2-6.4-76.1-4.9-78.8
	c1.5-2.7,44.8-3.7,49.2-12.5c2-4-2.7-14.2-0.7-22.8c1.3-5.5-5.8-10.1-7.3-14.8c-1.1-3.7,0.9-7.8,0.3-9.9c-0.3-1.2-4.2-3.4-5.9-9.2
	c-0.8-2.7,1.2-7.7,0.1-11c-7.8-24-23.6-62-48.6-75.5c-10.4-5.6-20.2-8.8-40.1-11.4c-15.9-2.1-25,14.2-56.7,13.8
	c-22-0.3-33.5-15.9-44.3-14.7C167.4,256.7,155.2,260.8,142.7,268.9z"/>
<polyline style="fill:#253B7B;stroke:#1B1B1C;stroke-width:13;stroke-linecap:round;stroke-linejoin:round;stroke-miterlimit:10;" points="
	139.3,355.2 138.6,363.1 141.5,370.5 137.5,376.2 140.5,384.1 135.9,394.3 137.8,406.1 131.8,436.8 "/>
<polyline style="fill:#253B7B;stroke:#1B1B1C;stroke-width:13;stroke-linecap:round;stroke-linejoin:round;stroke-miterlimit:10;" points="
	337.1,357.1 340.4,365.3 338.7,372.5 342.8,382.9 340.6,392.3 344.7,399.1 342.4,405.4 343.8,424.5 345.6,441.3 "/>
<g>
	<path style="fill:none;" d="M235.6,450.7"/>
</g>
<g>
	<path style="fill:none;" d="M192,397.2c30.6,0,61.2-2.9,91.8-2.9"/>
</g>
<path style="fill:#8090C8;stroke:#1B1B1C;stroke-width:5;stroke-miterlimit:10;" d="M99.5,421.5c0,0-0.5,10.5,0.8,11.3
	c3,0.8,22.4,3,24.1,2.8c0.7-3.3,1.3-7.9,1-12C121.6,423.3,99.5,421.5,99.5,421.5z"/>
<path style="fill:#8090C8;stroke:#1B1B1C;stroke-width:5;stroke-miterlimit:10;" d="M347.1,424.8c0,0,1.6,10.5,3.8,10.8
	c4.8-0.2,35.4-4.9,37.9-5.7c0.3-3.5,0.3-8.2-1.1-12.1C381.8,418.8,347.1,424.8,347.1,424.8z"/>
<g>
	<g>
		<path style="fill:#1B1B1C;" d="M104.5,423c-0.1,2.9-0.8,5.8-0.8,8.7c0,0.4,1.9,0.1,1.9-0.5c0.1-2.9,0.8-5.8,0.8-8.7
			C106.4,422.1,104.5,422.4,104.5,423L104.5,423z"/>
	</g>
</g>
<g>
	<g>
		<path style="fill:#1B1B1C;" d="M108.4,423.5c-0.2,2.9-0.6,5.8-0.6,8.7c0,0.3,1.9,0.1,1.9-0.5c0-2.9,0.3-5.8,0.6-8.7
			C110.4,422.7,108.5,422.9,108.4,423.5L108.4,423.5z"/>
	</g>
</g>
<g>
	<g>
		<path style="fill:#1B1B1C;" d="M112.1,424c0,3-0.6,6-0.4,9c0,0.6,2,0.2,1.9-0.5c-0.2-2.9,0.3-5.9,0.4-8.8
			C114,423,112.1,423.4,112.1,424L112.1,424z"/>
	</g>
</g>
<g>
	<g>
		<path style="fill:#1B1B1C;" d="M116,424.5c-0.3,3.1-0.7,6.1-0.7,9.2c0,0.3,1.9,0.1,1.9-0.5c0-3.1,0.5-6.1,0.7-9.2
			C118,423.7,116.1,423.9,116,424.5L116,424.5z"/>
	</g>
</g>
<g>
	<g>
		<path style="fill:#1B1B1C;" d="M119,424.8c-0.3,3-0.2,6.1-0.5,9.1c-0.1,0.9,1.9,0.5,1.9-0.2c0.3-3,0.2-6.1,0.5-9.1
			C121,423.7,119,424.1,119,424.8L119,424.8z"/>
	</g>
</g>
<g>
	<g>
		<path style="fill:#1B1B1C;" d="M352.9,425.7c1,2.4,1.8,4.8,2.5,7.3c0.1,0.5,2.1,0,1.9-0.5c-0.7-2.4-1.5-4.9-2.5-7.3
			C354.6,424.7,352.7,425.3,352.9,425.7L352.9,425.7z"/>
	</g>
</g>
<g>
	<g>
		<path style="fill:#1B1B1C;" d="M357.3,423.7c1.3,2.6,2.1,5.5,3.1,8.2c0.1,0.4,2.1-0.2,1.9-0.5c-0.9-2.8-1.8-5.6-3.1-8.2
			C359.1,422.8,357.2,423.4,357.3,423.7L357.3,423.7z"/>
	</g>
</g>
<g>
	<g>
		<path style="fill:#1B1B1C;" d="M362.8,423.2c0.7,2.8,1.3,5.6,2.3,8.2c0.3,0.7,2.2,0.1,1.9-0.5c-1-2.7-1.6-5.5-2.3-8.2
			C364.5,422,362.6,422.5,362.8,423.2L362.8,423.2z"/>
	</g>
</g>
<g>
	<g>
		<path style="fill:#1B1B1C;" d="M367.5,422.2c0.9,2.9,1.5,5.9,2.7,8.7c0.3,0.7,2.2,0.1,1.9-0.5c-1.2-2.8-1.9-5.8-2.7-8.7
			C369.2,421,367.3,421.5,367.5,422.2L367.5,422.2z"/>
	</g>
</g>
<g>
	<g>
		<path style="fill:#1B1B1C;" d="M371.4,421c1.2,3.1,2.1,6.4,3.4,9.6c0.3,0.8,2.2,0.2,1.9-0.5c-1.2-3.1-2.1-6.4-3.4-9.6
			C373.1,419.7,371.2,420.3,371.4,421L371.4,421z"/>
	</g>
</g>
<g>
	<g>
		<path style="fill:#1B1B1C;" d="M376.1,421.3c1.4,2.6,2.1,5.6,2.8,8.4c0.1,0.4,2-0.1,1.9-0.5c-0.7-2.8-1.4-5.8-2.8-8.4
			C377.8,420.2,376,421,376.1,421.3L376.1,421.3z"/>
	</g>
</g>
<g>
	<g>
		<path style="fill:#1B1B1C;" d="M380.2,420.7c1.4,2.5,2.2,5.5,2.9,8.2c0.2,0.7,2.1,0.2,1.9-0.5c-0.7-2.8-1.5-5.7-2.9-8.2
			C381.7,419.5,379.9,420.1,380.2,420.7L380.2,420.7z"/>
	</g>
</g>
<path style="fill:#8090C8;stroke:#1B1B1C;stroke-width:5;stroke-miterlimit:10;" d="M406.4,549.9"/>
<path style="fill:#EDEDED;stroke:#1B1B1C;stroke-width:13;stroke-miterlimit:10;" d="M395.2,395.7"/>
<g>
	<g>
		<path style="fill:#1B1B1C;" d="M349.9,374.1c4.3,0.5,8.4,0.5,12.7-0.3c4.2-0.8,8.1-2.9,12.1-4.3c4.6-1.6,3.3-7-1.4-5.3
			c-7.2,2.6-12.9,5.2-20.7,4.3C348.8,368,344.7,373.5,349.9,374.1L349.9,374.1z"/>
	</g>
</g>
<g>
	<g>
		<path style="fill:#1B1B1C;" d="M349.9,390.8c11.4,0.3,22-0.7,32.9-4.3c0.5-0.2,3.4-1.5,2.2-2.5c-1.3-1-3.7-0.1-5,0.3
			c-8.3,2.7-16.5,3.2-25.2,3c-1.9,0-3.9,0.4-5.5,1.5C348.1,389.6,348.3,390.8,349.9,390.8L349.9,390.8z"/>
	</g>
</g>
<g>
	<g>
		<path style="fill:#1B1B1C;" d="M194.4,703c2.3-1,4.6-2,6.9-3c0.3-0.1,0.9-0.7,0.4-1c-2.3-1.1-4.7-1.7-7.1-2.3c0,0.3,0,0.6,0,0.9
			c1.3-1,2.7-2,4-3c0.4-0.3,0.5-0.7,0-0.9c-1.9-0.7-3.8-1-5.7-1.7c-0.7-0.3-2.3,0.7-1.2,1.2c1.9,0.7,3.8,1,5.7,1.7
			c0-0.3,0-0.6,0-0.9c-1.3,1-2.7,2-4,3c-0.3,0.3-0.6,0.8,0,0.9c2.3,0.5,4.6,1.1,6.7,2.2c0.1-0.3,0.2-0.7,0.4-1c-2.3,1-4.6,2-6.9,3
			C192.4,702.6,193.5,703.4,194.4,703L194.4,703z"/>
	</g>
</g>
<g>
	<g>
		<path style="fill:#1B1B1C;" d="M192.3,685.4c-1.8,0.5-3,1.8-2,3.7c1,1.8,3.2,2.4,5.1,1.9c1.6-0.4,3-1.5,2.7-3.3
			c-0.3-1.9-2.2-2.9-4-3c-0.5,0-1,0.1-1.4,0.4c-0.3,0.2-0.2,0.5,0.1,0.5c1.9,0.2,4.5,2.4,2.9,4.4c-0.8,1-2.4,0-3.1-0.7
			c-0.6-0.6-1.7-2.7-0.3-3.1c0.2-0.1,1-0.3,0.9-0.6C193.2,685.2,192.5,685.4,192.3,685.4L192.3,685.4z"/>
	</g>
</g>
<g>
	<g>
		<path style="fill:#1B1B1C;" d="M189.6,684.3c1.7-0.5,3.5-0.6,5.2-1.5c2-1,0.9-3.3,0.3-4.9c-0.3-0.7-2.2-0.1-1.9,0.5
			c0.4,1.2,1.7,3.4,0,4c-1.2,0.5-2.6,0.6-3.8,0.9c-0.3,0.1-0.9,0.3-0.8,0.7C188.6,684.5,189.3,684.4,189.6,684.3L189.6,684.3z"/>
	</g>
</g>
<g>
	<g>
		<path style="fill:#1B1B1C;" d="M191.3,671.8c1.1,0,1.5-1.4,0.2-1.4C190.4,670.5,190,671.8,191.3,671.8L191.3,671.8z"/>
	</g>
</g>
<g>
	<g>
		<path style="fill:#1B1B1C;" d="M194.3,675.4c-1.4,0.2-3.3,1.3-4.7,0.8c-1.7-0.6-1.5-2.7-1.3-4.1c0.1-0.7-1.8-0.4-1.9,0.3
			c-0.2,1.7-0.3,3.8,1.5,4.6c2,1,4.1-0.3,6.1-0.7C194.9,676.2,195.6,675.2,194.3,675.4L194.3,675.4z"/>
	</g>
</g>
<g>
	<g>
		<path style="fill:#1B1B1C;" d="M191.9,676.8c-0.3-1-0.7-1.9-1.2-2.8c-0.4-0.6-2.2,0-1.8,0.8c0.5,0.8,0.8,1.6,1.1,2.5
			C190.2,678.1,192.2,677.5,191.9,676.8L191.9,676.8z"/>
	</g>
</g>
<circle style="fill:#FFFFFF;stroke:#1B1B1C;stroke-width:7;stroke-miterlimit:10;" cx="164.5" cy="604.1" r="7.6"/>
<path style="fill:#89856D;stroke:#1B1B1C;stroke-width:13;stroke-linecap:round;stroke-linejoin:round;stroke-miterlimit:10;" d="
	M332.8,525.4c2.9-0.4-0.3,44.2-0.4,62.1c-0.3,26.9-17,58.8-17,58.8s-15,3.3-36.6,3.3c-12.1,0-27.2-3.2-40.7-3.2
	c-11.4,0-23.8,2.9-33.7,2.8c-15.8,0-26.8-3-30.9-3.2c-15.1-0.7-25.5-49.4-25.8-57.6c-0.2-5.9-1.1-54.5-2.7-57
	C145.1,531.6,224.7,538.3,332.8,525.4z"/>
<g>
	<g>
		<path style="fill:#1B1B1C;" d="M239.5,697.9c-1.1-22.1,0-44.4,0.3-66.5c0.3-22.4,1.6-45.3-0.2-67.7c-0.4-4.8-7.9-4.9-7.5-0.1
			c1.8,22,0.5,44.5,0.2,66.5c-0.3,22.5-1.4,45.2-0.3,67.7C232.2,702.7,239.7,702.7,239.5,697.9L239.5,697.9z"/>
	</g>
</g>
<g>
	<g>
		<path style="fill:#1B1B1C;" d="M243.8,669.6c-1.1-6.2-0.9-12.9-0.9-19.1c0-10.4,0.2-20.8,0.5-31.2c0.5-16.5,1.5-33,1.6-49.6
			c0-4.8-7.5-4.9-7.5-0.1c-0.1,16.9-1.2,33.8-1.6,50.7c-0.3,10.3-0.5,20.7-0.5,31c0,6.7-0.1,13.6,1.1,20.2
			C237.4,676.3,244.7,674.3,243.8,669.6L243.8,669.6z"/>
	</g>
</g>
<g>
	<path style="fill:#46476E;" d="M147.8,563.9c3,9.4,9.2,13.7,16.2,20.1"/>
	<g>
		<path style="fill:#1B1B1C;" d="M142,565.4c3.1,9.1,9.8,14.6,16.6,20.9c3.2,2.9,14.1-1.6,10.7-4.7c-6.3-5.8-12.9-10.9-15.7-19.3
			C152.1,558,140.6,561.3,142,565.4L142,565.4z"/>
	</g>
</g>
<path style="fill:#686753;" d="M301.9,618.5c0,0-1.3-3-5.5-2c-1.1,0.6-3,2.3-5.9,0.4c-0.5-0.8-0.4-2.6,1.3-3.9
	c1-0.7-2.3-5.5-6.2-4.7c0,0-4.6,2.2-9.1-2.6c-0.9-0.5-3.2-2.1-5.6-1c-1.1-0.4-6.8-6.8,3.9-2.9c0.3,0,3.4,0.4,1.9-0.6
	c-1.4-1-8.2-7.1,1.4-1.9c1.9,1.1,0-0.3-1.2-1.6c-1.5-1.2,2.3,0.1,8.5,2.3c0.3-0.1,0.9-0.1,1-0.6c-0.5-0.8,0.6-3.3,1.7-1.1
	c0.5,0.7,1.7,1.1,2.7,2.7c1.5,1.8-0.4,2.2,0.9,5.3c0.4,1.2,1,0.3,2.6-1.1c0,0,6.2-5.2,12.4,0.6c1.1,0.8,2.4,1.9,4.3,3.2
	c0.5,0.3,0.6,2.1-1.6,1.9c0,0-5.1-2-6.2-1.5c-1.1,0.5-1.9,0.6-1.3,1.7c1.6,0.5,5.7,2.1,6.5,5.4c-0.3,0.5-0.4,2-2.3,1.5
	C305.4,618.9,303.8,621.8,301.9,618.5z"/>
<path style="fill:#686753;" d="M185.6,584.1c0,0-3.4,0.9,0-1.7c0.8-1,2.1-2.5,5.5-2c0.8,0.6,5.9,4.5,5.9,4.5
	c-0.6,1,4.6-19.9,13.4-12.2c0,0,6,8.2,3.5,12.6c1,0.1,4-4.5,5.5-1.4c1.1-0.1,5.8,3.4-5.5,4.3c-0.3,0.1-1.3,1,0.5,1.2
	c1.7,0.3,6.8,2.5-4.1,1.7c-2.2-0.2-4.8,0.1-3,0.8c1.9,0.4,7.6,1.8,1,2.3c-0.2,0.2-0.8,0.5-0.7,1c0.8,0.5,3.3,5.5-1.1,1.7
	c-0.7-0.4-2-0.3-3.6-1.3c-2.1-1-0.5-2.1-3-4.4c-0.9-1-3.5-0.1-4.4,1.9c0,0-1.1,7.5-9.1,4.8c-1.3-0.2-3-0.7-5.2-1.1
	c-0.6,0-1.4-1.7,0.7-2.3c0,0,5.5-0.3,6.3-1.2c0.8-1,1.5-1.4,0.5-2c-1.7,0.2-6.1,0.4-8.1-2.3c0-0.5-0.5-2,1.5-2.3
	C182.3,585.2,182.5,581.9,185.6,584.1z"/>
<path style="fill:#686753;" d="M273.7,617.6c0,0,2-1.4,0.4,1.1c-0.3,0.8-0.8,2.1-3.2,2.6c-0.6-0.2-4.9-1.6-4.9-1.6
	c0.1-0.8-1.3,0.7-6.6,3.4c0,0-5.1,3.8-4.5,0.3c-0.7,0.2-1.6,3.9-3.3,2.2c-0.7,0.3-4.6-0.9,2.6-4.1c0.2-0.1,0.7-0.9-0.6-0.7
	c-1.2,0.2-5,0,2.3-2.1c1.5-0.4,3.1-1.2,1.8-1.2c-1.3,0.2-5.4,0.6-1.2-1.3c0.1-0.2,0.4-0.5,0.2-0.8c-0.6-0.1-3.4-2.8,0.3-1.4
	c0.6,0.1,1.4-0.2,2.6,0c1.6,0.2,0.9-1.8,3-0.9c0.8,0.4,1.3-0.6,1.4-2.1c0,0,0-2.2,5.9-2.3c0.9-0.2,2.1-0.2,3.7-0.5
	c0.4-0.1,1.3,0.8,0.1,1.7c0,0-3.5,1.5-3.8,2.3c-0.3,0.8-0.6,1.2,0.2,1.4c1-0.5,3.9-1.7,5.9-0.4c0.1,0.4,0.8,1.2-0.4,1.8
	C275.6,616.2,276.3,618.4,273.7,617.6z"/>
<path style="fill:#686753;" d="M162.2,598.5c0,0-1.7,0.5,0-0.9c0.4-0.5,1-1.2,2.8-1c0.4,0.3,2.9,2.2,2.9,2.2
	c-0.3,0.5,2.3-9.9,6.7-6.1c0,0,3,4.1,1.8,6.3c0.5,0,2-2.3,2.7-0.7c0.6,0,2.9,1.7-2.7,2.1c-0.1,0-0.7,0.5,0.2,0.6
	c0.9,0.1,3.4,1.2-2.1,0.9c-1.1-0.1-2.4,0-1.5,0.4c0.9,0.2,3.8,0.9,0.5,1.2c-0.1,0.1-0.4,0.2-0.3,0.5c0.4,0.2,1.6,2.7-0.6,0.9
	c-0.4-0.2-1-0.2-1.8-0.7c-1-0.5-0.3-1.1-1.5-2.2c-0.5-0.5-1.8,0-2.2,0.9c0,0-0.5,3.7-4.6,2.4c-0.7-0.1-1.5-0.4-2.6-0.6
	c-0.3,0-0.7-0.9,0.3-1.2c0,0,2.7-0.1,3.1-0.6c0.4-0.5,0.7-0.7,0.2-1c-0.8,0.1-3,0.2-4.1-1.1c0-0.3-0.2-1,0.7-1.1
	C160.6,599,160.7,597.4,162.2,598.5z"/>
<path style="fill:#6D675C;" d="M160.7,549.5c0-0.5-0.5-2,1.5-2.3c0.3-1.2,0.5-4.5,3.6-2.2c0,0,2.4,2.2,5.8-0.5
	c0.8-1,1.8-3.3,5.2-2.9c0.8,0.6,1.4,2.2,0.4,4.1c-0.6,1,4.4,4.1,7.6,1.7c0,0,3.2-3.9,9.3-1.3c1,0.1,3.8,0.6,5.5-1.4
	c1.1-0.1,5.8,3.4-5.5,4.3c-0.3,0.1-1.3,1,0.5,1.2c1.7,0.3,6.8,2.5-4.1,1.7c-2.2-0.2-4.8,0.1-3,0.8c1.9,0.4,7.6,1.8,1,2.3
	c-0.2,0.2-0.8,0.5-0.7,1c0.8,0.5,3.3,5.5-1.1,1.7c-0.7-0.4-2-0.3-3.6-1.3c-2.1-1-1.2,10.4-3.6,8.2c-2.5,1.6-6.9,4-10.2,1.3
	c0,0-4-4.6-2.7-7.3c-1.3-0.2-3-0.7-5.2-1.1c-0.6,0-1.4-1.7,0.7-2.3C162.1,555.1,158.5,553.8,160.7,549.5z"/>
<path style="fill:#6D675C;" d="M311.9,569c0,0-2.6,2.8-4.6,0.4c-0.8-1-2.4-4-5.2-2.9c-0.8,0.6-0.1,2.5-1.5,3
	c-1.4,0.7-13.5-9.5-19.4-3.1l-1.7,2c0.1,0-1.1,1.1-1.5,2.4c-0.4,1.4-0.5,4.2,6.8,3c0.3,0.1,1.3,1-0.5,1.2c-1.7,0.3-6.8,2.5,4.1,1.7
	c2.2-0.2,4.8,0.1,3,0.8c-1.9,0.4-7.6,1.8-1,2.3c0.2,0.2,0.8,0.5,0.7,1c-0.8,0.5-3.3,5.5,1.1,1.7c0.7-0.4,2-0.3,3.6-1.3
	c2.1-1-2.5,6.2-0.1,3.9c0.9-1,4.6-2.4,5.4-0.5c0,0,3.1,1.5,11.2-1.2c1.3-0.2,1,0.7,3.2,0.3c0.6,0,2.5,0.4,4.5-0.8
	c0,0,3.4-1.7,2.6-2.7c-0.8-1-4.5-1.7-3.5-2.4c1.7,0.2-0.1-2.3-0.9-3.5c0-0.5-0.9-0.6-1.3-2.5C316.5,570.7,315,566.8,311.9,569z"/>
<path style="fill:#625B4B;" d="M166.1,601.2c0,0,1.7,1.6,4.1-0.3c0.5-0.7,1.3-2.4,3.7-2c0.5,0.4,1,1.6,0.3,2.9
	c-0.4,0.7,3.1,2.9,5.4,1.2c0,0,2.3-2.8,6.7-1c0.7,0.1,2.7,0.4,3.9-1c0.8-0.1,4.1,2.4-3.9,3.1c-0.2,0.1-1,0.7,0.3,0.8
	c1.2,0.2,4.8,1.8-3,1.2c-1.6-0.1-3.4,0.1-2.2,0.5c1.3,0.3,5.4,1.3,0.7,1.7c-0.2,0.1-0.5,0.3-0.5,0.7c0.6,0.3,2.3,3.9-0.8,1.2
	c-0.5-0.3-1.4-0.2-2.6-1c-1.5-0.7-0.4-1.5-2.1-3.2c-0.6-0.7-2.5-0.1-3.1,1.3c0,0-0.8,5.3-6.5,3.4c-1-0.2-2.1-0.5-3.7-0.8
	c-0.4,0-1-1.2,0.5-1.7c0,0,3.9-0.2,4.5-0.9c0.6-0.7,1.1-1,0.3-1.5c-1.2,0.1-4.4,0.3-5.8-1.6c0-0.4-0.3-1.4,1.1-1.6
	C163.8,601.9,163.9,599.6,166.1,601.2z"/>
<path style="fill:#6D675C;" d="M189.6,618.7c0,0,2.2,0.1,2.9-2.8c0-0.8-0.5-2.6,1.5-3.8c0.7,0,1.7,0.5,2,2c0.2,0.8,4.1,0.2,4.8-2.5
	c0,0-4-1.9,0.4-3.2c0.6-0.4,2.3-1.4,2.3-3.2c0.6-0.6,4.6-0.7-1,4.7c-0.1,0.2-0.3,1.1,0.8,0.4c1-0.6,8.7-3.3,2.5,1.1
	c-1.2,0.9-2.5,2.2-1.3,1.8c1.2-0.6,4.8-2.4,1.6,0.8c0,0.2-0.2,0.6,0.1,0.8c0.6-0.1,4.2,1.5,0.1,1.4c-0.6,0.1-1.2,0.7-2.5,0.9
	c-1.6,0.4-1.2-0.9-3.5-1c-0.9-0.1-1.9,1.5-1.5,2.9c0,0,6.4,6.4,0.9,8.5c-0.8,0.5-5.1-1-6.4-0.3c-0.3,0.2-0.7-1.3-1.6-0.9
	c0,0-1.2,0.8-1.2,0c0-0.9-0.4,0-0.3-0.9c-0.8,0.8-0.1-1.1-1.2-2c-0.2-0.3-1.1-0.8-0.2-1.9C188.4,620.7,187,618.9,189.6,618.7z"/>
<path style="fill:#6D675C;" d="M258.6,549.8c0,0,2.2,0.1,2.9-2.8c0-0.8-0.5-2.6,1.5-3.8c0.7,0,1.7,0.5,2,2c0.2,0.8,4.1,0.2,4.8-2.5
	c0,0-4-1.9,0.4-3.2c0.6-0.4,2.3-1.4,2.3-3.2c0.6-0.6,4.6-0.7-1,4.7c-0.1,0.2-0.3,1.1,0.8,0.4c1-0.6,8.7-3.3,2.5,1.1
	c-1.2,0.9-2.5,2.2-1.3,1.8c1.2-0.6,4.8-2.4,1.6,0.8c0,0.2-0.2,0.6,0.1,0.8c0.6-0.1,4.2,1.5,0.2,1.4c-0.6,0.1-1.2,0.7-2.5,0.9
	c-1.6,0.4-1.2-0.9-3.5-1c-0.9-0.1-1.9,1.5-1.5,2.9c0,0,6.4,6.4,0.9,8.5c-0.8,0.5-5.1-1-6.4-0.3c-0.3,0.2-0.7-1.3-1.6-0.9
	c0,0-1.2,0.8-1.2,0c0-0.9-0.4,0-0.3-0.9c-0.8,0.8-0.1-1.1-1.2-2c-0.2-0.3-1.1-0.8-0.2-1.9C257.3,551.8,255.9,549.9,258.6,549.8z"/>
<path style="fill:#625B4B;" d="M257.4,595c0,0,2.1,2,5.2-0.4c0.7-0.9,1.6-3,4.7-2.6c0.7,0.5,1.3,2,0.3,3.7c-0.5,0.9,3.9,3.7,6.9,1.5
	c0,0,2.9-3.5,8.4-1.2c0.9,0.1,2.6-1.7,5-1.3c1-0.1,13.2,3.7,3,4.5c-0.3,0.1-0.6,0.7,0.3,1.3c1.5,0.3-1.7,1.4-11.5,0.7
	c-2-0.2-4.3,0.1-2.7,0.7c1.7,0.4,6.8,1.6,0.9,2.1c-0.2,0.2-0.7,0.4-0.6,0.9c0.7,0.4,3,5-1,1.5c-0.6-0.4-1.8-0.3-3.2-1.2
	c-1.9-0.9-0.5-1.9-2.7-4c-0.8-0.9-3.2-0.1-3.9,1.7c0,0-1,6.7-8.2,4.3c-1.2-0.2-2.7-0.6-4.7-1c-0.5,0-1.2-1.5,0.6-2.1
	c0,0-4.6-0.8-3.9-1.7l0.1-1.1c0,0,0.4-3.1,2.6-2.2c0-0.5-0.4-1.8,1.3-2.1C254.4,595.9,254.6,592.9,257.4,595z"/>
<path style="fill:#625B4B;" d="M230,545.1c0,0,2.1,2,5.2-0.4c0.7-0.9,1.6-3,4.7-2.6c0.7,0.5,1.3,2,0.3,3.7c-0.5,0.9,3.9,3.7,6.9,1.5
	c0,0,2.9-3.5,8.4-1.2c0.9,0.1,2.6-1.7,5-1.3c1-0.1,13.2,3.7,3,4.5c-0.3,0.1-0.6,0.7,0.3,1.3c1.5,0.3-1.7,1.4-11.5,0.7
	c-2-0.2-4.3,0.1-2.7,0.7c1.7,0.4,6.8,1.6,0.9,2.1c-0.2,0.2-0.7,0.4-0.6,0.9c0.7,0.4,3,5-1,1.5c-0.6-0.4-1.8-0.3-3.2-1.2
	c-1.9-0.9-0.5-1.9-2.7-4c-0.8-0.9-3.2-0.1-3.9,1.7c0,0-1,6.7-8.2,4.3c-1.2-0.2-2.7-0.6-4.7-1c-0.5,0-1.2-1.5,0.6-2.1
	c0,0-4.6-0.8-3.9-1.7l0.1-1.1c0,0,0.4-3.1,2.6-2.2c0-0.5-0.4-1.8,1.3-2.1C227.1,546.1,227.2,543.1,230,545.1z"/>
<path style="fill:#5C5648;" d="M311.1,534.8c0,0-1.2,6.3-4.5,12c-5.8,7.7-1.5,11,8.3,4.6c4.8-3.5,6.3,4.7,6.3,5.6
	c0.7,2.8-3.8,10.1,2,9.2c3.9-0.6,3.2-2.1,3.5-2.2c0.3-0.1,1-29.5,1-29.5S320.2,534.3,311.1,534.8z"/>
<path style="fill:#625B4B;" d="M224.8,606.8c0,0-1.8,1.9-3.2,0.3c-0.5-0.7-1.7-2.8-3.6-2c-0.5,0.4,0,1.7-1.1,2.1
	c-1,0.5-9.3-6.5-13.4-2.2l-1.2,1.4c0.1,0-0.8,0.7-1.1,1.7c-0.3,1-0.3,2.9,4.7,2.1c0.2,0.1,0.9,0.7-0.3,0.8c-1.2,0.2-4.7,1.7,2.9,1.2
	c1.5-0.1,3.3,0.1,2.1,0.5c-1.3,0.3-5.2,1.2-0.7,1.6c0.2,0.1,0.5,0.3,0.5,0.7c-0.6,0.3-2.3,3.8,0.8,1.2c0.5-0.3,1.4-0.2,2.5-0.9
	c1.4-0.7-1.8,4.2-0.1,2.7c0.6-0.7,3.2-1.7,3.8-0.3c0,0,2.1,1.1,7.7-0.8c0.9-0.2,0.7,0.5,2.2,0.2c0.4,0,1.7,0.3,3.1-0.5
	c0,0,2.3-1.2,1.8-1.8c-0.6-0.7-3.1-1.2-2.4-1.6c1.2,0.1-0.1-1.6-0.6-2.4c0-0.4-0.6-0.4-0.9-1.7C228,608,227,605.3,224.8,606.8z"/>
<path style="fill:#8090C8;stroke:#1B1B1C;stroke-width:6;stroke-miterlimit:10;" d="M144.9,527.2c0,0-16.9,15.8,71.9,11.8
	c106.8-4.7,110.4,11.6,119.4-17.4c-7.8-1.1-54.4,4.2-103.2,5.5C202,528.1,171.9,523.1,144.9,527.2z"/>
<polygon style="fill:#1B1C1C;" points="89.1,410.5 76.3,449.1 84.7,448.6 79.2,457 85.2,460.2 79.7,467.9 88.4,470.6 80.2,484.7 
	90.6,482.8 87.1,496.6 92.6,494.4 93.6,513.9 103.6,499.2 "/>
<polygon style="fill:#1B1C1C;" points="390.9,414.1 404.3,431.8 398.8,433.9 406.8,447.7 402.5,447.1 409.3,458.3 403.4,457.7 
	408.6,469.2 400.3,469.1 403,472.7 394.7,473.2 386.7,486.5 392.1,489.7 "/>
<path style="fill:#ABABAB;stroke:#1B1C1C;stroke-width:7;stroke-linecap:round;stroke-linejoin:round;stroke-miterlimit:10;" d="
	M345.6,114.2l5.2,6.3l-1.1,2.5l5.1,6.3l-6.1,2.7l6.4,5.7l-6.9,1.7l3.3,3.5l-6.1,2.7l7,2.7l-4.7,5.2l9.4,1.9l-5.8,4.1l7,1l-6.1,2.4
	l7,4.6l-5,0.3l10.4,6.9l-8.9,3l5.8,1.5l-4.8,4.8l4.1,4.6l-4.5,3.2l4.9,7.5l-5.6,5.1l3.2,6.8l-6.3-0.5l3.2,10.7l-2.5-2.5
	c0,0,0.2,11-1.2,22.2c-3.4-9.8-6.9-10.5-6.9-10.5l2,16.7l-7.6-0.5l1,14.5l-9.8-4.4l0.8,8.8l-13-5.2l3.3,5.1l-10.9-5.3l-8.2-4.9"/>
<path style="fill:#ABABAB;stroke:#1B1C1C;stroke-width:8;stroke-linecap:round;stroke-linejoin:round;stroke-miterlimit:10;" d="
	M139.1,109.1l-2.5,8.2l1.1,2.5l-5.1,6.3l6.1,2.7l-6.4,5.7l6.9,1.7l-3.3,3.5l6.1,2.7l-7,2.7l4.7,5.2l-9.4,1.9l5.8,4.1l-7,1l6.1,2.4
	l-7.3,0.9l3.1,4.1l-6.1,4.5l4.3,5.1l-4.5,1l3.6,5.9l-4.2,4.1l5.9,5.3l-3.3,5.6l5,5.1l-3.2,6.8l6.3-0.5l-3.2,10.7l2.5-2.5
	c0,0-0.2,11,1.2,22.2c3.4-9.8,6.9-10.5,6.9-10.5l-2,16.7l7.6-0.5l-1,14.5l9.8-4.4l-0.8,8.8l13-5.2v5.6l16.2-3l6.7-0.6"/>
<path style="fill:#1B1C1C;" d="M211.6,279c0,0,6.7,10.5,8.2,10.5c0.5-0.4,0.3-2.1-0.2-3.3c0.3-1.1,1.9-1.1,2.4,0
	c0.6,1.1,1.4,3.7,1.8,2.7c0-1.8,0.5-3.3,1.5-1.8c1,1.5,2.8,3.5,3.2,3.1c-0.2-1-0.8-2,0.3-2.4c1,0.6,3,3.6,4.3,3.1
	c-0.3-1.7-0.9-3.7,0.1-3.6c1.3,1.4,3.9,6.3,4.6,3.8c0.3-1.7,1.4-3.3,1.8-1.8c0.4,1.6,1.5,4.4,2.4,2.5c0.8-1.9,3.1-4.3,3.4-2
	c0,0,0.2,4.1,1.9,1.3c0.8-2.2,2.1-2.9,2.5-1.6c0,2,1.3,4.2,3.7,0.5c0.9-1,2.3-2,2.3-0.3s0.7,4.8,2.3,1.7c1.6-3,1-4.9,3.8-4.8
	c1.8,2.3,7.8-4.7,7.7-7.1"/>
<path style="fill:#ABABAB;stroke:#1B1C1C;stroke-width:11;stroke-linecap:round;stroke-linejoin:round;stroke-miterlimit:10;" d="
	M339.8,40c-5.5-16.8-21-9.9-22.6-7.6c-1.6,2.3-7.9,16.2-9.6,18.5c-3.5,5.2-28,28-28,28c-21.6-1-37.7,8.3-37.7,8.3
	c-5.4-3.7-20.8-11.7-36.2-4.9c-3.4-2.7-25.6-23.1-28.8-27.8c-1.8-2.3-8-16.2-9.6-18.5c-1.6-2.3-17.1-9.2-22.6,7.6
	c-5.3,16.4-15.9,51.4,2.6,92.2c-3.8,10.5-10.3,29.6-8.4,41.2c6.8,41.3,30.3,64.9,59.7,84.6c3.9,8.8,13.5,24.1,40.4,13
	c3.6,1.1,26.3,14.1,41.1-8.3c24.7-12,66.8-36.2,66.8-79.6c0-14.5-2.6-45.5-8.2-57.9C355.1,89.5,345,55.9,339.8,40z"/>
<path style="fill:#1B1C1C;" d="M197.5,244.5c0.2,2.3-4.6,3.9-6.3,3.9c-1.8,0-5-6.7-5-9.8c0-3.1,0-4.2,2.3-4.5
	C190.2,233.8,197.2,239.4,197.5,244.5z"/>
<path style="fill:#1B1C1C;" d="M291.1,238.1c-0.2,2.3,3.6,5.4,5.4,5.4c3.7,0,3.8-7.2,1.4-9.8c-2.1-2.3-3.9-6.7-6.2-7
	C289.9,226.4,291.5,233,291.1,238.1z"/>
<line style="fill:#454546;stroke:#1B1C1C;stroke-width:9;stroke-miterlimit:10;" x1="279.1" y1="266.3" x2="295.1" y2="239.6"/>
<line style="fill:#454546;stroke:#1B1C1C;stroke-width:9;stroke-miterlimit:10;" x1="192.9" y1="244.2" x2="200.3" y2="263.6"/>
<circle style="fill:#1B1C1C;" cx="198" cy="161.4" r="11.5"/>
<circle style="fill:#1B1C1C;" cx="288.7" cy="163.1" r="12.3"/>
<path style="fill:none;stroke:#1B1C1C;stroke-width:13;stroke-miterlimit:10;" d="M255.9,251.6"/>
<path style="fill:#C7C5C5;stroke:#1B1C1C;stroke-width:7;stroke-miterlimit:10;" d="M252.9,249.6c0,0,2.6-4.9,4.6-4
	c0.6,0.5,3,1.8-3,8.3c-0.9,1.7,0.6,3.9,3.2,2.4c0,0,8.1-3.4,8.6-16.8c-1.4-3-3.7-6.1-8.4-6.7c-2.2-1-8.2-3.8-17.1-3.6
	c0,0-9.4-0.3-13.9,2.6c-1.4,0.1-3.6,0.9-7.4,1.6c-3.8,0.7-7.2,5.4-5.7,8.7c1,3.2,1.5,9.9,7.5,12.7c1.2,0.9,3.8-1,1-5.5
	c0,0-3-2.6,0-5.8c0,0,4-2.3,3.6,10c0.2,3.4,3.5,6.1,11.6,10c0,0,1.3,1,1.5-1.4c0-2-1.3-17.1,0.8-18.3c0.8-0.1,0.9,18.7,1.4,19.5
	c0.5,0.8,3.1,0.2,5.8-1.4c2.9-2.2,3.6-2.7,5.4-6.2C252.6,255.7,252,250.7,252.9,249.6z"/>
<g>
	<g>
		<path style="fill:#1B1C1C;" d="M196.3,140.4c1.2,1.2,2.7,1.7,4.4,1.7c1.4,0,3.1-0.4,3.8-1.7c0.6-1.2-0.6-2.2-1.7-2.2
			c-0.2,0-0.5,0-0.7,0c-0.5,0,0.6,0.2-0.1,0c-0.1,0-0.2-0.1-0.3-0.1c0.3,0.2,0.4,0.2,0.2,0.1c-0.1,0-0.2-0.1-0.2-0.2
			c-0.4-0.3,0.3,0.3-0.1,0c-1-1-2.7-0.9-3.9-0.3c-0.6,0.3-1.2,0.7-1.5,1.3C196,139.4,196,140.1,196.3,140.4L196.3,140.4z"/>
	</g>
</g>
<g>
	<g>
		<path style="fill:#1B1C1C;" d="M208.8,138.1c-2.6-1.8-5.5-2.5-8.6-2.2c-1.1,0.1-3,0.7-3.3,1.9c-0.3,1.3,1.8,1.2,2.5,1.1
			c1.4-0.1,2.9,0.6,4.1,1.4c1.1,0.8,2.6,0.5,3.8,0C207.7,140.1,209.9,138.8,208.8,138.1L208.8,138.1z"/>
	</g>
</g>
<g>
	<g>
		<path style="fill:#1B1C1C;" d="M198.3,137.3c-2.6-1.8-5.5-2.5-8.6-2.2c-1.1,0.1-3,0.7-3.3,1.9c-0.3,1.3,1.8,1.2,2.5,1.1
			c1.4-0.1,2.9,0.6,4.1,1.4c1.1,0.8,2.6,0.5,3.8,0C197.1,139.3,199.4,138,198.3,137.3L198.3,137.3z"/>
	</g>
</g>
<g>
	<g>
		<path style="fill:#1B1C1C;" d="M186.4,137.3c-2.6-1.8-5.5-2.5-8.6-2.2c-1.1,0.1-3,0.7-3.3,1.9c-0.3,1.3,1.8,1.2,2.5,1.1
			c1.4-0.1,2.9,0.6,4.1,1.4c1.1,0.8,2.6,0.5,3.8,0C185.3,139.3,187.5,138,186.4,137.3L186.4,137.3z"/>
	</g>
</g>
<g>
	<g>
		<path style="fill:#1B1C1C;" d="M214.9,141.6c-1.7-1.5-3.4-2.9-5.6-3.6c-1.4-0.4-3.1,0-4.1,1.1c-0.8,1-0.6,2.4,0.7,2.8
			c1.8,0.5,3.1,1.9,4.5,3C212.4,146.6,217.5,143.8,214.9,141.6L214.9,141.6z"/>
	</g>
</g>
<g>
	<g>
		<path style="fill:#1B1C1C;" d="M324.5,147.3c2.3-0.6,4.6-1,6.8-1.8c0.9-0.3,2.3-1.6,1.5-2.7c-0.9-1.1-2.8-0.6-3.9-0.2
			c-1.7,0.6-3.6,0.8-5.3,1.3c-1,0.3-2.8,1.2-2.4,2.5C321.5,147.6,323.6,147.5,324.5,147.3L324.5,147.3z"/>
	</g>
</g>
<g>
	<g>
		<path style="fill:#1B1C1C;" d="M201.7,84.3c1.2,1.9,1.4,3.3,0,4.7c-1.6,1.5-0.9,3.5,1.1,4c2.3,0.7,5.1-0.2,6.8-1.8
			c1.5-1.4,2.7-3.2,2.9-5.3c0.1-2.1-0.8-3.9-1.9-5.6c-1.2-1.9-4.9-1.1-6.5-0.4C202.5,80.6,200.5,82.4,201.7,84.3L201.7,84.3z"/>
	</g>
</g>
<g>
	<g>
		<path style="fill:#1B1C1C;" d="M276.6,80c-0.1,3.2-2.1,6.2,0.3,9c0.4,0.5,2,0.3,2.4,0.2c1.3-0.1,2.6-0.4,3.8-0.9
			c0.8-0.3,4-1.4,2.9-2.6c-1.9-2.1,0.2-5.9,0.3-8.3C286.3,76.1,276.7,77.3,276.6,80L276.6,80z"/>
	</g>
</g>
<path style="fill:none;stroke:#1B1C1C;stroke-width:9;stroke-linecap:round;stroke-linejoin:round;stroke-miterlimit:10;" d="
	M157.2,119.2c0,0,0.3,7,3.8,2c3.9-4.7,6.4-9,7.6-11.4c1.3-1,2.4-0.3,4.1-0.2c2.4,0.1,12.2,1,11-11.3c-1.3-7.9-2.2-12-10.2-21.7
	c-4.3-5.9-11.3-18.3-15.3-24.7c-1.4-1.8-2.7-5.4-5.5,6.3c-2,12.4-2.1,21.5,1.9,40.6C155.8,108.7,156.6,112.4,157.2,119.2z"/>
<path style="fill:none;stroke:#1B1C1C;stroke-width:9;stroke-linecap:round;stroke-linejoin:round;stroke-miterlimit:10;" d="
	M323.3,115.8c0,0-1.1,6.6-3.8,1.5c-3.2-4.9-3.8-6.2-4.7-8.6c-0.7-0.4-0.6-0.3-2.1-0.4c-2.2-0.1-14.7-3.9-12.1-15.4
	c2.1-7.3,2.2-14.8,10.9-23.1c4.7-5.1,9.6-15,15.1-20.7c1.5-1.6,3.2-4.8,4.6,6.6c0.5,12,0.5,26.4-2.8,40.9
	C325.8,106,324.6,109.4,323.3,115.8z"/>
<polyline style="fill:none;stroke:#1B1C1C;stroke-width:4;stroke-linecap:round;stroke-linejoin:round;stroke-miterlimit:10;" points="
	159.4,65.4 159.7,73.5 157.5,72.3 159.7,75.3 162.8,73 160.7,78.8 157.7,76.1 160.2,80.6 157.8,80 160.3,82.5 164.3,78.1 
	161.4,83.4 158.9,83.9 161.9,85.9 159.6,86.3 164.3,84.9 161.1,88.1 165.5,89 161.7,89.7 169,94.7 161.8,91.3 166.4,95.1 
	161.4,94.5 167.4,96.8 161.6,99.1 170.4,99.7 164.1,103.7 168.7,102.9 "/>
<polyline style="fill:none;stroke:#1B1C1C;stroke-width:4;stroke-linecap:round;stroke-linejoin:round;stroke-miterlimit:10;" points="
	322.2,64.6 322,72.7 324.1,71.5 322,74.5 318.8,72.2 321,78 324,75.3 321.4,79.8 323.8,79.2 321.3,81.7 317.3,77.3 320.2,82.6 
	322.8,83.1 319.8,85.1 322,85.5 317.4,84.2 320.5,87.3 316.1,88.2 320,88.9 312.6,93.9 319.9,90.5 315.2,94.3 320.2,93.7 314.3,96 
	320,98.3 311.3,98.9 317.6,102.9 313,102.1 "/>
<g>
	<path style="fill:#1B1C1C;" d="M216.1,222.2c14-13.2,32.4-19.2,44-35.2"/>
	<g>
		<path style="fill:#C7C5C5;" d="M218.5,223c13.9-12.8,32.4-19.7,44-35.2c2.2-2.9-3.3-3.5-4.8-1.5c-11.5,15.4-30.1,22.4-44,35.2
			C211.1,223.9,216.8,224.6,218.5,223L218.5,223z"/>
	</g>
</g>
<g>
	<path style="fill:#1B1C1C;" d="M221.7,186.6c8.8,14.8,23.2,23.2,35.2,34.8"/>
	<g>
		<path style="fill:#C7C5C5;" d="M219,187.8c8.8,14.4,23.2,23.4,35.2,34.8c1.6,1.5,7.1-0.7,5.4-2.4c-12-11.4-26.3-20.4-35.2-34.8
			C223.3,183.6,217.7,185.6,219,187.8L219,187.8z"/>
	</g>
</g>
<g>
	<g>
		<path style="fill:#1B1C1C;" d="M274.6,156.7c11.1-2.9,21.8-9.9,33.4-10.5c3-0.2,7-1,9-3.5c2-2.5-1.7-3.4-3.5-3.3
			c-14.6,0.7-26.6,8-40.5,11.6c-1.6,0.4-6.7,2.2-6,4.7C267.8,158.2,273,157.1,274.6,156.7L274.6,156.7z"/>
	</g>
</g>
<path style="fill:#A4AAD5;stroke:#1B1B1C;stroke-width:13;stroke-linecap:round;stroke-linejoin:round;stroke-miterlimit:10;" d="
	M256.5,183.1"/>
<path style="fill:#A4AAD5;stroke:#1B1B1C;stroke-width:13;stroke-linecap:round;stroke-linejoin:round;stroke-miterlimit:10;" d="
	M305.4,124.5"/>
<path style="fill:#A4AAD5;stroke:#1B1B1C;stroke-width:13;stroke-linecap:round;stroke-linejoin:round;stroke-miterlimit:10;" d="
	M296.1,173.5"/>
<path style="fill:#A4AAD5;stroke:#1B1B1C;stroke-width:13;stroke-linecap:round;stroke-linejoin:round;stroke-miterlimit:10;" d="
	M317.5,146.2"/>
<circle style="fill:#4C4C4D;stroke:#1B1C1C;stroke-width:4;stroke-linecap:round;stroke-linejoin:round;stroke-miterlimit:10;" cx="351.8" cy="453.4" r="7"/>
<circle style="fill:#4C4C4D;stroke:#1B1C1C;stroke-width:4;stroke-linecap:round;stroke-linejoin:round;stroke-miterlimit:10;" cx="392.4" cy="449.8" r="7"/>
<circle style="fill:#4C4C4D;stroke:#1B1C1C;stroke-width:4;stroke-linecap:round;stroke-linejoin:round;stroke-miterlimit:10;" cx="363" cy="456" r="5.3"/>
<circle style="fill:#4C4C4D;stroke:#1B1C1C;stroke-width:2;stroke-linecap:round;stroke-linejoin:round;stroke-miterlimit:10;" cx="378.2" cy="483.8" r="3.5"/>
<circle style="fill:#4C4C4D;stroke:#1B1C1C;stroke-width:4;stroke-linecap:round;stroke-linejoin:round;stroke-miterlimit:10;" cx="372.5" cy="455.3" r="5.3"/>
<circle style="fill:#4C4C4D;stroke:#1B1C1C;stroke-width:4;stroke-linecap:round;stroke-linejoin:round;stroke-miterlimit:10;" cx="382.5" cy="454.3" r="5.3"/>
<g>
	<g>
		<path style="fill:#1B1C1C;" d="M350,456.9c3.2,0.2,5.6-2,5.3-5.2c0-0.5-2-0.1-1.9,0.5c0.1,1.3-0.4,3.9-2.2,3.8
			c-0.5,0-1,0.1-1.4,0.4C349.5,456.5,349.6,456.9,350,456.9L350,456.9z"/>
	</g>
</g>
<g>
	<g>
		<path style="fill:#1B1C1C;" d="M389.8,448.4c1.3-0.4,3-0.2,3.6,1.2c0.4,0.8,2.3,0.2,1.9-0.5c-1.1-2.2-3.8-2.4-5.9-1.8
			c-0.3,0.1-0.9,0.4-0.8,0.8C388.8,448.5,389.5,448.5,389.8,448.4L389.8,448.4z"/>
	</g>
</g>
<g>
	<g>
		<path style="fill:#1B1C1C;" d="M376.5,458.8c-0.4,3.5,1.1,6.6,1.8,10c0.8,4-2.2,8-2.4,11.9c0,0.5,1.4,0.2,1.4-0.2
			c0.2-3.8,2.3-7,2.5-10.8c0.3-3.9-2.3-7.2-1.9-11.2C378,458.1,376.5,458.3,376.5,458.8L376.5,458.8z"/>
	</g>
</g>
<g>
	<g>
		<path style="fill:#1B1C1C;" d="M371.2,460.8c-3.9,6.8,6.7,14.2,8.1,20.3c0.1,0.6,1.6,0.2,1.4-0.4c-1.4-6-11.8-13.5-8.2-19.8
			C373,460.2,371.5,460.3,371.2,460.8L371.2,460.8z"/>
	</g>
</g>
<g>
	<g>
		<path style="fill:#1B1C1C;" d="M378.4,485.9c0.8-0.3,1.3-0.9,1.6-1.7c0.4-1.1-1.5-1.1-1.9-0.3c-0.1,0.4-0.3,0.6-0.6,0.7
			c-0.4,0.2-0.7,0.7-0.4,1.1C377.4,486.1,378,486,378.4,485.9L378.4,485.9z"/>
	</g>
</g>
<path style="fill:#8090C8;stroke:#1B1B1C;stroke-width:5;stroke-miterlimit:10;" d="M205.5,364.5c0,0,21.8,19.3,33.8,54.3
	c16.4-24.4,49.3-38.5,39.4-53.9c2.7,1.3,7,2.7,7.1,7.9c0.1,5.3-32.8,81.4-44.4,86.6c-11-21.5-69.3-96.3-37.2-99.2
	C204.6,362.1,202.8,362.6,205.5,364.5z"/>
<path style="fill:#1B1B1C;" d="M249.5,411.4L249.5,411.4l1.5,0c0,0,0.4,0,0.4-0.4c0-0.4,0-0.5,0-0.5l0,0h-1.5c0,0-0.4,0-0.4,0.4
	C249.5,411.3,249.5,411.4,249.5,411.4z"/>
<path style="fill:#1B1B1C;" d="M251.4,412.4L251.4,412.4l-1.5,0c0,0-0.4,0-0.4-0.4c0-0.4,0-0.5,0-0.5l0,0h1.5c0,0,0.4,0,0.4,0.4
	C251.4,412.3,251.4,412.4,251.4,412.4z"/>
<path style="fill:#1B1B1C;" d="M251,413.5h-1.1c0,0-0.4,0-0.4-0.4c0-0.4,0-0.5,0-0.5l0,0h1.9l0,0c0,0,0,0.2,0,0.4
	C251.5,413.5,251,413.5,251,413.5z"/>
<path style="fill:#1B1B1C;" d="M254.7,413.5L254.7,413.5l0.8-2.6c0,0,0.2-0.3,0.6-0.4c0,0,0.4,0,0.6,0.4c0.2,0.5,0.8,2.6,0.8,2.6
	l0,0H257c0,0-0.5,0-0.9-0.7c-0.1,0.2-0.3,0.6-0.8,0.7C254.8,413.5,254.7,413.5,254.7,413.5z"/>
<path style="fill:#1B1B1C;" d="M252.3,413.5L252.3,413.5l0.6,0c0,0,0.4-0.1,0.4-0.5c0-0.4,0-0.3,0-0.3l0.9,0.2l0,0v-0.5
	c0,0,0-0.3-0.4-0.5c-0.3-0.1-0.4-0.1-0.4-0.1l0.4-0.1c0,0,0.4-0.2,0.4-0.5c0-0.3,0-0.5,0-0.5l0,0c0,0-1.3,0.3-1.5,0.4
	c-0.2,0.1-0.3,0.2-0.3,0.5V413.5z"/>
<path style="fill:#1B1B1C;" d="M245.2,415.7L245.2,415.7l1.5,0c0,0,0.4,0,0.4-0.4c0-0.4,0-0.5,0-0.5l0,0h-1.5c0,0-0.4,0-0.4,0.4
	C245.2,415.6,245.2,415.7,245.2,415.7z"/>
<path style="fill:#1B1B1C;" d="M247.2,416.7L247.2,416.7l-1.5,0c0,0-0.4,0-0.4-0.4c0-0.4,0-0.5,0-0.5l0,0h1.5c0,0,0.4,0,0.4,0.4
	C247.2,416.6,247.2,416.7,247.2,416.7z"/>
<path style="fill:#1B1B1C;" d="M246.8,417.8h-1.1c0,0-0.4,0-0.4-0.4c0-0.4,0-0.5,0-0.5l0,0h1.9l0,0c0,0,0,0.2,0,0.4
	C247.2,417.8,246.8,417.8,246.8,417.8z"/>
<path style="fill:#1B1B1C;" d="M250.4,417.8L250.4,417.8l0.8-2.6c0,0,0.2-0.3,0.6-0.4c0,0,0.4,0,0.6,0.4c0.2,0.5,0.8,2.6,0.8,2.6
	l0,0h-0.5c0,0-0.5,0-0.9-0.7c-0.1,0.2-0.3,0.6-0.8,0.7C250.6,417.8,250.4,417.8,250.4,417.8z"/>
<path style="fill:#1B1B1C;" d="M248.1,417.7L248.1,417.7l0.6,0c0,0,0.4-0.1,0.4-0.5c0-0.4,0-0.3,0-0.3l0.9,0.2l0,0v-0.5
	c0,0,0-0.3-0.4-0.5c-0.3-0.1-0.4-0.1-0.4-0.1l0.4-0.1c0,0,0.4-0.2,0.4-0.5c0-0.3,0-0.5,0-0.5l0,0c0,0-1.3,0.3-1.5,0.4
	c-0.2,0.1-0.3,0.2-0.3,0.5V417.7z"/>
<path style="fill:#1B1B1C;" d="M242.3,419.8L242.3,419.8l1.5,0c0,0,0.4,0,0.4-0.4c0-0.4,0-0.5,0-0.5l0,0h-1.5c0,0-0.4,0-0.4,0.4
	C242.3,419.7,242.3,419.8,242.3,419.8z"/>
<path style="fill:#1B1B1C;" d="M244.3,420.9L244.3,420.9l-1.5,0c0,0-0.4,0-0.4-0.4c0-0.4,0-0.5,0-0.5l0,0h1.5c0,0,0.4,0.1,0.4,0.4
	C244.3,420.7,244.3,420.9,244.3,420.9z"/>
<path style="fill:#1B1B1C;" d="M243.9,421.9h-1.1c0,0-0.4,0-0.4-0.4c0-0.4,0-0.5,0-0.5l0,0h1.9l0,0c0,0,0,0.2,0,0.4
	C244.3,421.9,243.9,421.9,243.9,421.9z"/>
<path style="fill:#1B1B1C;" d="M247.5,421.9L247.5,421.9l0.8-2.6c0,0,0.2-0.3,0.6-0.4c0,0,0.4,0,0.6,0.4c0.2,0.5,0.8,2.6,0.8,2.6
	l0,0h-0.5c0,0-0.5,0-0.9-0.7c-0.1,0.2-0.3,0.6-0.8,0.7C247.7,421.9,247.5,421.9,247.5,421.9z"/>
<path style="fill:#1B1B1C;" d="M245.2,421.9L245.2,421.9l0.6,0c0,0,0.4-0.1,0.4-0.5c0-0.4,0-0.3,0-0.3l0.9,0.2l0,0v-0.5
	c0,0,0-0.3-0.4-0.5c-0.3-0.1-0.4-0.1-0.4-0.1l0.4-0.1c0,0,0.4-0.2,0.4-0.5c0-0.3,0-0.5,0-0.5l0,0c0,0-1.3,0.3-1.5,0.4
	c-0.2,0.1-0.3,0.2-0.3,0.5V421.9z"/>
<path style="fill:#1B1B1C;" d="M225.5,410.8L225.5,410.8l1.5,0c0,0,0.4,0,0.4-0.4c0-0.4,0-0.5,0-0.5l0,0h-1.5c0,0-0.4,0.1-0.4,0.4
	C225.5,410.7,225.5,410.8,225.5,410.8z"/>
<path style="fill:#1B1B1C;" d="M227.4,411.9L227.4,411.9l-1.5,0c0,0-0.4,0-0.4-0.4c0-0.4,0-0.5,0-0.5l0,0h1.5c0,0,0.4,0.1,0.4,0.4
	C227.4,411.8,227.4,411.9,227.4,411.9z"/>
<path style="fill:#1B1B1C;" d="M227,412.9h-1.1c0,0-0.4,0-0.4-0.4c0-0.4,0-0.5,0-0.5l0,0h1.9l0,0c0,0,0,0.2,0,0.4
	C227.5,413,227,412.9,227,412.9z"/>
<path style="fill:#1B1B1C;" d="M230.7,412.9L230.7,412.9l0.8-2.6c0,0,0.2-0.3,0.6-0.4c0,0,0.4,0,0.6,0.4c0.2,0.5,0.8,2.6,0.8,2.6
	l0,0H233c0,0-0.5,0-0.9-0.7c-0.1,0.2-0.3,0.6-0.8,0.7C230.8,412.9,230.7,412.9,230.7,412.9z"/>
<path style="fill:#1B1B1C;" d="M228.3,412.9L228.3,412.9l0.6,0c0,0,0.4-0.1,0.4-0.5c0-0.4,0-0.3,0-0.3l0.9,0.2l0,0v-0.5
	c0,0,0-0.3-0.4-0.5c-0.3-0.1-0.4-0.1-0.4-0.1l0.4-0.1c0,0,0.4-0.2,0.4-0.5c0-0.3,0-0.5,0-0.5l0,0c0,0-1.3,0.3-1.5,0.4
	c-0.2,0.1-0.3,0.2-0.3,0.5V412.9z"/>
<path style="fill:#1B1B1C;" d="M215.9,410.6L215.9,410.6l1.5,0c0,0,0.4,0,0.4-0.4c0-0.4,0-0.5,0-0.5l0,0h-1.5c0,0-0.4,0.1-0.4,0.4
	C215.9,410.5,215.9,410.6,215.9,410.6z"/>
<path style="fill:#1B1B1C;" d="M217.9,411.7L217.9,411.7l-1.5,0c0,0-0.4,0-0.4-0.4c0-0.4,0-0.5,0-0.5l0,0h1.5c0,0,0.4,0.1,0.4,0.4
	C217.9,411.6,217.9,411.7,217.9,411.7z"/>
<path style="fill:#1B1B1C;" d="M217.4,412.7h-1.1c0,0-0.4,0-0.4-0.4c0-0.4,0-0.5,0-0.5l0,0h1.9l0,0c0,0,0,0.2,0,0.4
	C217.9,412.8,217.4,412.7,217.4,412.7z"/>
<path style="fill:#1B1B1C;" d="M221.1,412.7L221.1,412.7l0.8-2.6c0,0,0.2-0.3,0.6-0.4c0,0,0.4,0,0.6,0.4c0.2,0.5,0.8,2.6,0.8,2.6
	l0,0h-0.5c0,0-0.5,0-0.9-0.7c-0.1,0.2-0.3,0.6-0.8,0.7C221.3,412.7,221.1,412.7,221.1,412.7z"/>
<path style="fill:#1B1B1C;" d="M218.7,412.7L218.7,412.7l0.6,0c0,0,0.4-0.1,0.4-0.5c0-0.4,0-0.3,0-0.3l0.9,0.2l0,0v-0.5
	c0,0,0-0.3-0.4-0.5c-0.3-0.1-0.4-0.1-0.4-0.1l0.4-0.1c0,0,0.4-0.2,0.4-0.5c0-0.3,0-0.5,0-0.5l0,0c0,0-1.3,0.3-1.5,0.4
	c-0.2,0.1-0.3,0.2-0.3,0.5V412.7z"/>
<path style="fill:#1B1B1C;" d="M201.3,390.1L201.3,390.1l1.5,0c0,0,0.4,0,0.4-0.4c0-0.4,0-0.5,0-0.5l0,0h-1.5c0,0-0.4,0.1-0.4,0.4
	C201.3,389.9,201.3,390.1,201.3,390.1z"/>
<path style="fill:#1B1B1C;" d="M203.3,391.1L203.3,391.1l-1.5,0c0,0-0.4,0-0.4-0.4c0-0.4,0-0.5,0-0.5l0,0h1.5c0,0,0.4,0,0.4,0.4
	C203.3,391,203.3,391.1,203.3,391.1z"/>
<path style="fill:#1B1B1C;" d="M202.9,392.1h-1.1c0,0-0.4,0-0.4-0.4c0-0.4,0-0.5,0-0.5l0,0h1.9l0,0c0,0,0,0.2,0,0.4
	C203.3,392.2,202.9,392.1,202.9,392.1z"/>
<path style="fill:#1B1B1C;" d="M206.5,392.1L206.5,392.1l0.8-2.6c0,0,0.2-0.3,0.6-0.4c0,0,0.4,0,0.6,0.4c0.2,0.5,0.8,2.6,0.8,2.6
	l0,0h-0.5c0,0-0.5,0-0.9-0.7c-0.1,0.2-0.3,0.6-0.8,0.7C206.7,392.1,206.5,392.1,206.5,392.1z"/>
<path style="fill:#1B1B1C;" d="M204.2,392.1L204.2,392.1l0.6,0c0,0,0.4-0.1,0.4-0.5c0-0.4,0-0.3,0-0.3l0.9,0.2l0,0V391
	c0,0,0-0.3-0.4-0.5c-0.3-0.1-0.4-0.1-0.4-0.1l0.4-0.1c0,0,0.4-0.2,0.4-0.5c0-0.3,0-0.5,0-0.5l0,0c0,0-1.3,0.3-1.5,0.4
	c-0.2,0.1-0.3,0.2-0.3,0.5V392.1z"/>
<path style="fill:#1B1B1C;" d="M200.3,386.1L200.3,386.1l1.5,0c0,0,0.4,0,0.4-0.4c0-0.4,0-0.5,0-0.5l0,0h-1.5c0,0-0.4,0.1-0.4,0.4
	C200.3,385.9,200.3,386.1,200.3,386.1z"/>
<path style="fill:#1B1B1C;" d="M202.2,387.1L202.2,387.1l-1.5,0c0,0-0.4,0-0.4-0.4c0-0.4,0-0.5,0-0.5l0,0h1.5c0,0,0.4,0,0.4,0.4
	C202.2,387,202.2,387.1,202.2,387.1z"/>
<path style="fill:#1B1B1C;" d="M201.8,388.2h-1.1c0,0-0.4,0-0.4-0.4c0-0.4,0-0.5,0-0.5l0,0h1.9l0,0c0,0,0,0.2,0,0.4
	C202.3,388.2,201.8,388.2,201.8,388.2z"/>
<path style="fill:#1B1B1C;" d="M205.5,388.2L205.5,388.2l0.8-2.6c0,0,0.2-0.3,0.6-0.4c0,0,0.4,0,0.6,0.4c0.2,0.5,0.8,2.6,0.8,2.6
	l0,0h-0.5c0,0-0.5,0-0.9-0.7c-0.1,0.2-0.3,0.6-0.8,0.7C205.6,388.2,205.5,388.2,205.5,388.2z"/>
<path style="fill:#1B1B1C;" d="M203.1,388.1L203.1,388.1l0.6,0c0,0,0.4-0.1,0.4-0.5c0-0.4,0-0.3,0-0.3l0.9,0.2l0,0V387
	c0,0,0-0.3-0.4-0.5c-0.3-0.1-0.4-0.1-0.4-0.1l0.4-0.1c0,0,0.4-0.2,0.4-0.5c0-0.3,0-0.5,0-0.5l0,0c0,0-1.3,0.3-1.5,0.4
	c-0.2,0.1-0.3,0.2-0.3,0.5V388.1z"/>
<path style="fill:#1B1B1C;" d="M199.3,381.7L199.3,381.7l1.5,0c0,0,0.4,0,0.4-0.4c0-0.4,0-0.5,0-0.5l0,0h-1.5c0,0-0.4,0.1-0.4,0.4
	C199.3,381.6,199.3,381.7,199.3,381.7z"/>
<path style="fill:#1B1B1C;" d="M201.3,382.7L201.3,382.7l-1.5,0c0,0-0.4,0-0.4-0.4c0-0.4,0-0.5,0-0.5l0,0h1.5c0,0,0.4,0,0.4,0.4
	C201.3,382.6,201.3,382.7,201.3,382.7z"/>
<path style="fill:#1B1B1C;" d="M200.8,383.8h-1.1c0,0-0.4,0-0.4-0.4c0-0.4,0-0.5,0-0.5l0,0h1.9l0,0c0,0,0,0.2,0,0.4
	C201.3,383.8,200.8,383.8,200.8,383.8z"/>
<path style="fill:#1B1B1C;" d="M204.5,383.8L204.5,383.8l0.8-2.6c0,0,0.2-0.3,0.6-0.4c0,0,0.4,0,0.6,0.4c0.2,0.5,0.8,2.6,0.8,2.6
	l0,0h-0.5c0,0-0.5,0-0.9-0.7c-0.1,0.2-0.3,0.6-0.8,0.7C204.7,383.8,204.5,383.8,204.5,383.8z"/>
<path style="fill:#1B1B1C;" d="M202.1,383.8L202.1,383.8l0.6,0c0,0,0.4-0.1,0.4-0.5c0-0.4,0-0.3,0-0.3l0.9,0.2l0,0v-0.5
	c0,0,0-0.3-0.4-0.5c-0.3-0.1-0.4-0.1-0.4-0.1l0.4-0.1c0,0,0.4-0.2,0.4-0.5c0-0.3,0-0.5,0-0.5l0,0c0,0-1.3,0.3-1.5,0.4
	c-0.2,0.1-0.3,0.2-0.3,0.5V383.8z"/>
<path style="fill:#1B1B1C;" d="M198.7,376.9L198.7,376.9l1.5,0c0,0,0.4,0,0.4-0.4c0-0.4,0-0.5,0-0.5l0,0h-1.5c0,0-0.4,0-0.4,0.4
	C198.7,376.7,198.7,376.9,198.7,376.9z"/>
<path style="fill:#1B1B1C;" d="M200.6,377.9L200.6,377.9l-1.5,0c0,0-0.4,0-0.4-0.4c0-0.4,0-0.5,0-0.5l0,0h1.5c0,0,0.4,0,0.4,0.4
	C200.6,377.8,200.6,377.9,200.6,377.9z"/>
<path style="fill:#1B1B1C;" d="M200.2,378.9h-1.1c0,0-0.4,0-0.4-0.4c0-0.4,0-0.5,0-0.5l0,0h1.9l0,0c0,0,0,0.2,0,0.4
	C200.7,379,200.2,378.9,200.2,378.9z"/>
<path style="fill:#1B1B1C;" d="M203.9,379L203.9,379l0.8-2.6c0,0,0.2-0.3,0.6-0.4c0,0,0.4,0,0.6,0.4c0.2,0.5,0.8,2.6,0.8,2.6l0,0
	h-0.5c0,0-0.5,0-0.9-0.7c-0.1,0.2-0.3,0.6-0.8,0.7C204,378.9,203.9,379,203.9,379z"/>
<path style="fill:#1B1B1C;" d="M201.5,378.9L201.5,378.9l0.6,0c0,0,0.4-0.1,0.4-0.5c0-0.4,0-0.3,0-0.3l0.9,0.2l0,0v-0.5
	c0,0,0-0.3-0.4-0.5c-0.3-0.1-0.4-0.1-0.4-0.1l0.4-0.1c0,0,0.4-0.2,0.4-0.5c0-0.3,0-0.5,0-0.5l0,0c0,0-1.3,0.3-1.5,0.4
	c-0.2,0.1-0.3,0.2-0.3,0.5V378.9z"/>
<path style="fill:#1B1B1C;" d="M202.1,395.3L202.1,395.3l1.5,0c0,0,0.4,0,0.4-0.4c0-0.4,0-0.5,0-0.5l0,0h-1.5c0,0-0.4,0.1-0.4,0.4
	C202.1,395.2,202.1,395.3,202.1,395.3z"/>
<path style="fill:#1B1B1C;" d="M204.1,396.4L204.1,396.4l-1.5,0c0,0-0.4,0-0.4-0.4c0-0.4,0-0.5,0-0.5l0,0h1.5c0,0,0.4,0.1,0.4,0.4
	C204.1,396.2,204.1,396.4,204.1,396.4z"/>
<path style="fill:#1B1B1C;" d="M203.7,397.4h-1.1c0,0-0.4,0-0.4-0.4c0-0.4,0-0.5,0-0.5l0,0h1.9l0,0c0,0,0,0.2,0,0.4
	C204.1,397.4,203.7,397.4,203.7,397.4z"/>
<path style="fill:#1B1B1C;" d="M207.3,397.4L207.3,397.4l0.8-2.6c0,0,0.2-0.3,0.6-0.4c0,0,0.4,0,0.6,0.4c0.2,0.5,0.8,2.6,0.8,2.6
	l0,0h-0.5c0,0-0.5,0-0.9-0.7c-0.1,0.2-0.3,0.6-0.8,0.7C207.5,397.4,207.3,397.4,207.3,397.4z"/>
<path style="fill:#1B1B1C;" d="M205,397.4L205,397.4l0.6,0c0,0,0.4-0.1,0.4-0.5c0-0.4,0-0.3,0-0.3l0.9,0.2l0,0v-0.5
	c0,0,0-0.3-0.4-0.5c-0.3-0.1-0.4-0.1-0.4-0.1l0.4-0.1c0,0,0.4-0.2,0.4-0.5c0-0.3,0-0.5,0-0.5l0,0c0,0-1.3,0.3-1.5,0.4
	c-0.2,0.1-0.3,0.2-0.3,0.5V397.4z"/>
<path style="fill:#1B1B1C;" d="M198.1,371.8L198.1,371.8l1.5,0c0,0,0.4,0,0.4-0.4c0-0.4,0-0.5,0-0.5l0,0h-1.5c0,0-0.4,0-0.4,0.4
	C198.1,371.7,198.1,371.8,198.1,371.8z"/>
<path style="fill:#1B1B1C;" d="M200.1,372.8L200.1,372.8l-1.5,0c0,0-0.4,0-0.4-0.4c0-0.4,0-0.5,0-0.5l0,0h1.5c0,0,0.4,0.1,0.4,0.4
	C200.1,372.7,200.1,372.8,200.1,372.8z"/>
<path style="fill:#1B1B1C;" d="M199.7,373.9h-1.1c0,0-0.4,0-0.4-0.4c0-0.4,0-0.5,0-0.5l0,0h1.9l0,0c0,0,0,0.2,0,0.4
	C200.2,373.9,199.7,373.9,199.7,373.9z"/>
<path style="fill:#1B1B1C;" d="M203.4,373.9L203.4,373.9l0.8-2.6c0,0,0.2-0.3,0.6-0.4c0,0,0.4,0,0.6,0.4c0.2,0.5,0.8,2.6,0.8,2.6
	l0,0h-0.5c0,0-0.5,0-0.9-0.7c-0.1,0.2-0.3,0.6-0.8,0.7C203.5,373.9,203.4,373.9,203.4,373.9z"/>
<path style="fill:#1B1B1C;" d="M201,373.8L201,373.8l0.6,0c0,0,0.4-0.1,0.4-0.5c0-0.4,0-0.3,0-0.3l0.9,0.2l0,0v-0.5
	c0,0,0-0.3-0.4-0.5c-0.3-0.1-0.4-0.1-0.4-0.1l0.4-0.1c0,0,0.4-0.2,0.4-0.5c0-0.3,0-0.5,0-0.5l0,0c0,0-1.3,0.3-1.5,0.4
	c-0.2,0.1-0.3,0.2-0.3,0.5V373.8z"/>
<path style="fill:#1B1B1C;" d="M197.6,367.1L197.6,367.1l1.5,0c0,0,0.4,0,0.4-0.4c0-0.4,0-0.5,0-0.5l0,0h-1.5c0,0-0.4,0.1-0.4,0.4
	C197.6,367,197.6,367.1,197.6,367.1z"/>
<path style="fill:#1B1B1C;" d="M199.6,368.2L199.6,368.2l-1.5,0c0,0-0.4,0-0.4-0.4c0-0.4,0-0.5,0-0.5l0,0h1.5c0,0,0.4,0.1,0.4,0.4
	C199.6,368.1,199.6,368.2,199.6,368.2z"/>
<path style="fill:#1B1B1C;" d="M199.2,369.2h-1.1c0,0-0.4,0-0.4-0.4c0-0.4,0-0.5,0-0.5l0,0h1.9l0,0c0,0,0,0.2,0,0.4
	C199.6,369.3,199.2,369.2,199.2,369.2z"/>
<path style="fill:#1B1B1C;" d="M202.8,369.2L202.8,369.2l0.8-2.6c0,0,0.2-0.3,0.6-0.4c0,0,0.4,0,0.6,0.4c0.2,0.5,0.8,2.6,0.8,2.6
	l0,0h-0.5c0,0-0.5,0-0.9-0.7c-0.1,0.2-0.3,0.6-0.8,0.7C203,369.2,202.8,369.2,202.8,369.2z"/>
<path style="fill:#1B1B1C;" d="M200.5,369.2L200.5,369.2l0.6,0c0,0,0.4-0.1,0.4-0.5c0-0.4,0-0.3,0-0.3l0.9,0.2l0,0v-0.5
	c0,0,0-0.3-0.4-0.5c-0.3-0.1-0.4-0.1-0.4-0.1l0.4-0.1c0,0,0.4-0.2,0.4-0.5c0-0.3,0-0.5,0-0.5l0,0c0,0-1.3,0.3-1.5,0.4
	c-0.2,0.1-0.3,0.2-0.3,0.5V369.2z"/>
<path style="fill:#1B1B1C;" d="M197.6,362.9L197.6,362.9l1.5,0c0,0,0.4,0,0.4-0.4c0-0.4,0-0.5,0-0.5l0,0h-1.5c0,0-0.4,0.1-0.4,0.4
	C197.6,362.7,197.6,362.9,197.6,362.9z"/>
<path style="fill:#1B1B1C;" d="M199.6,363.9L199.6,363.9l-1.5,0c0,0-0.4,0-0.4-0.4c0-0.4,0-0.5,0-0.5l0,0h1.5c0,0,0.4,0,0.4,0.4
	C199.6,363.8,199.6,363.9,199.6,363.9z"/>
<path style="fill:#1B1B1C;" d="M199.2,365h-1.1c0,0-0.4,0-0.4-0.4c0-0.4,0-0.5,0-0.5l0,0h1.9l0,0c0,0,0,0.2,0,0.4
	C199.6,365,199.2,365,199.2,365z"/>
<path style="fill:#1B1B1C;" d="M202.8,365L202.8,365l0.8-2.6c0,0,0.2-0.3,0.6-0.4c0,0,0.4,0,0.6,0.4c0.2,0.5,0.8,2.6,0.8,2.6l0,0
	h-0.5c0,0-0.5,0-0.9-0.7c-0.1,0.2-0.3,0.6-0.8,0.7C203,365,202.8,365,202.8,365z"/>
<path style="fill:#1B1B1C;" d="M200.5,364.9L200.5,364.9l0.6,0c0,0,0.4-0.1,0.4-0.5c0-0.4,0-0.3,0-0.3l0.9,0.2l0,0v-0.5
	c0,0,0-0.3-0.4-0.5c-0.3-0.1-0.4-0.1-0.4-0.1l0.4-0.1c0,0,0.4-0.2,0.4-0.5c0-0.3,0-0.5,0-0.5l0,0c0,0-1.3,0.3-1.5,0.4
	c-0.2,0.1-0.3,0.2-0.3,0.5V364.9z"/>
<path style="fill:#1B1B1C;" d="M218.1,415.3L218.1,415.3l1.5,0c0,0,0.4,0,0.4-0.4c0-0.4,0-0.5,0-0.5l0,0h-1.5c0,0-0.4,0.1-0.4,0.4
	C218.1,415.2,218.1,415.3,218.1,415.3z"/>
<path style="fill:#1B1B1C;" d="M220.1,416.3L220.1,416.3l-1.5,0c0,0-0.4,0-0.4-0.4c0-0.4,0-0.5,0-0.5l0,0h1.5c0,0,0.4,0.1,0.4,0.4
	C220.1,416.2,220.1,416.3,220.1,416.3z"/>
<path style="fill:#1B1B1C;" d="M219.7,417.4h-1.1c0,0-0.4,0-0.4-0.4c0-0.4,0-0.5,0-0.5l0,0h1.9l0,0c0,0,0,0.2,0,0.4
	C220.1,417.4,219.7,417.4,219.7,417.4z"/>
<path style="fill:#1B1B1C;" d="M223.3,417.4L223.3,417.4l0.8-2.6c0,0,0.2-0.3,0.6-0.4c0,0,0.4,0,0.6,0.4c0.2,0.5,0.8,2.6,0.8,2.6
	l0,0h-0.5c0,0-0.5,0-0.9-0.7c-0.1,0.2-0.3,0.6-0.8,0.7C223.5,417.4,223.3,417.4,223.3,417.4z"/>
<path style="fill:#1B1B1C;" d="M221,417.4L221,417.4l0.6,0c0,0,0.4-0.1,0.4-0.5c0-0.4,0-0.3,0-0.3l0.9,0.2l0,0v-0.5
	c0,0,0-0.3-0.4-0.5c-0.3-0.1-0.4-0.1-0.4-0.1l0.4-0.1c0,0,0.4-0.2,0.4-0.5c0-0.3,0-0.5,0-0.5l0,0c0,0-1.3,0.3-1.5,0.4
	c-0.2,0.1-0.3,0.2-0.3,0.5V417.4z"/>
<path style="fill:#1B1B1C;" d="M227.6,415.4L227.6,415.4l1.5,0c0,0,0.4,0,0.4-0.4c0-0.4,0-0.5,0-0.5l0,0H228c0,0-0.4,0.1-0.4,0.4
	C227.6,415.3,227.6,415.4,227.6,415.4z"/>
<path style="fill:#1B1B1C;" d="M229.6,416.4L229.6,416.4l-1.5,0c0,0-0.4,0-0.4-0.4c0-0.4,0-0.5,0-0.5l0,0h1.5c0,0,0.4,0.1,0.4,0.4
	C229.6,416.3,229.6,416.4,229.6,416.4z"/>
<path style="fill:#1B1B1C;" d="M229.1,417.5H228c0,0-0.4,0-0.4-0.4c0-0.4,0-0.5,0-0.5l0,0h1.9l0,0c0,0,0,0.2,0,0.4
	C229.6,417.5,229.1,417.5,229.1,417.5z"/>
<path style="fill:#1B1B1C;" d="M232.8,417.5L232.8,417.5l0.8-2.6c0,0,0.2-0.3,0.6-0.4c0,0,0.4,0,0.6,0.4c0.2,0.5,0.8,2.6,0.8,2.6
	l0,0h-0.5c0,0-0.5,0-0.9-0.7c-0.1,0.2-0.3,0.6-0.8,0.7C233,417.5,232.8,417.5,232.8,417.5z"/>
<path style="fill:#1B1B1C;" d="M230.4,417.5L230.4,417.5l0.6,0c0,0,0.4-0.1,0.4-0.5c0-0.4,0-0.3,0-0.3l0.9,0.2l0,0v-0.5
	c0,0,0-0.3-0.4-0.5c-0.3-0.1-0.4-0.1-0.4-0.1l0.4-0.1c0,0,0.4-0.2,0.4-0.5c0-0.3,0-0.5,0-0.5l0,0c0,0-1.3,0.3-1.5,0.4
	c-0.2,0.1-0.3,0.2-0.3,0.5V417.5z"/>
<path style="fill:#1B1B1C;" d="M220.8,419.6L220.8,419.6l1.5,0c0,0,0.4,0,0.4-0.4c0-0.4,0-0.5,0-0.5l0,0h-1.5c0,0-0.4,0.1-0.4,0.4
	C220.8,419.5,220.8,419.6,220.8,419.6z"/>
<path style="fill:#1B1B1C;" d="M222.8,420.7L222.8,420.7l-1.5,0c0,0-0.4,0-0.4-0.4c0-0.4,0-0.5,0-0.5l0,0h1.5c0,0,0.4,0.1,0.4,0.4
	C222.8,420.5,222.8,420.7,222.8,420.7z"/>
<path style="fill:#1B1B1C;" d="M222.4,421.7h-1.1c0,0-0.4,0-0.4-0.4c0-0.4,0-0.5,0-0.5l0,0h1.9l0,0c0,0,0,0.2,0,0.4
	C222.8,421.8,222.4,421.7,222.4,421.7z"/>
<path style="fill:#1B1B1C;" d="M226.1,421.7L226.1,421.7l0.8-2.6c0,0,0.2-0.3,0.6-0.4c0,0,0.4,0,0.6,0.4c0.2,0.5,0.8,2.6,0.8,2.6
	l0,0h-0.5c0,0-0.5,0-0.9-0.7c-0.1,0.2-0.3,0.6-0.8,0.7C226.2,421.7,226.1,421.7,226.1,421.7z"/>
<path style="fill:#1B1B1C;" d="M223.7,421.7L223.7,421.7l0.6,0c0,0,0.4-0.1,0.4-0.5c0-0.4,0-0.3,0-0.3l0.9,0.2l0,0v-0.5
	c0,0,0-0.3-0.4-0.5c-0.3-0.1-0.4-0.1-0.4-0.1l0.4-0.1c0,0,0.4-0.2,0.4-0.5c0-0.3,0-0.5,0-0.5l0,0c0,0-1.3,0.3-1.5,0.4
	c-0.2,0.1-0.3,0.2-0.3,0.5V421.7z"/>
<path style="fill:#1B1B1C;" d="M229.4,419.4L229.4,419.4l1.5,0c0,0,0.4,0,0.4-0.4c0-0.4,0-0.5,0-0.5l0,0h-1.5c0,0-0.4,0.1-0.4,0.4
	C229.4,419.3,229.4,419.4,229.4,419.4z"/>
<path style="fill:#1B1B1C;" d="M231.4,420.5L231.4,420.5l-1.5,0c0,0-0.4,0-0.4-0.4c0-0.4,0-0.5,0-0.5l0,0h1.5c0,0,0.4,0,0.4,0.4
	C231.4,420.4,231.4,420.5,231.4,420.5z"/>
<path style="fill:#1B1B1C;" d="M231,421.5h-1.1c0,0-0.4,0-0.4-0.4c0-0.4,0-0.5,0-0.5l0,0h1.9l0,0c0,0,0,0.2,0,0.4
	C231.5,421.6,231,421.5,231,421.5z"/>
<path style="fill:#1B1B1C;" d="M234.7,421.5L234.7,421.5l0.8-2.6c0,0,0.2-0.3,0.6-0.4c0,0,0.4,0,0.6,0.4c0.2,0.5,0.8,2.6,0.8,2.6
	l0,0h-0.5c0,0-0.5,0-0.9-0.7c-0.1,0.2-0.3,0.6-0.8,0.7C234.8,421.5,234.7,421.5,234.7,421.5z"/>
<path style="fill:#1B1B1C;" d="M232.3,421.5L232.3,421.5l0.6,0c0,0,0.4-0.1,0.4-0.5c0-0.4,0-0.3,0-0.3l0.9,0.2l0,0v-0.5
	c0,0,0-0.3-0.4-0.5c-0.3-0.1-0.4-0.1-0.4-0.1l0.4-0.1c0,0,0.4-0.2,0.4-0.5c0-0.3,0-0.5,0-0.5l0,0c0,0-1.3,0.3-1.5,0.4
	c-0.2,0.1-0.3,0.2-0.3,0.5V421.5z"/>
<path style="fill:#1B1B1C;" d="M226.6,423.8L226.6,423.8l1.5,0c0,0,0.4,0,0.4-0.4c0-0.4,0-0.5,0-0.5l0,0H227c0,0-0.4,0-0.4,0.4
	C226.6,423.7,226.6,423.8,226.6,423.8z"/>
<path style="fill:#1B1B1C;" d="M228.6,424.9L228.6,424.9l-1.5,0c0,0-0.4,0-0.4-0.4c0-0.4,0-0.5,0-0.5l0,0h1.5c0,0,0.4,0.1,0.4,0.4
	C228.5,424.7,228.6,424.9,228.6,424.9z"/>
<path style="fill:#1B1B1C;" d="M228.1,425.9H227c0,0-0.4,0-0.4-0.4c0-0.4,0-0.5,0-0.5l0,0h1.9l0,0c0,0,0,0.2,0,0.4
	C228.6,425.9,228.1,425.9,228.1,425.9z"/>
<path style="fill:#1B1B1C;" d="M231.8,425.9L231.8,425.9l0.8-2.6c0,0,0.2-0.3,0.6-0.4c0,0,0.4,0,0.6,0.4c0.2,0.5,0.8,2.6,0.8,2.6
	l0,0h-0.5c0,0-0.5,0-0.9-0.7c-0.1,0.2-0.3,0.6-0.8,0.7C231.9,425.9,231.8,425.9,231.8,425.9z"/>
<path style="fill:#1B1B1C;" d="M229.4,425.9L229.4,425.9l0.6,0c0,0,0.4-0.1,0.4-0.5c0-0.4,0-0.3,0-0.3l0.9,0.2l0,0v-0.5
	c0,0,0-0.3-0.4-0.5c-0.3-0.1-0.4-0.1-0.4-0.1l0.4-0.1c0,0,0.4-0.2,0.4-0.5c0-0.3,0-0.5,0-0.5l0,0c0,0-1.3,0.3-1.5,0.4
	c-0.2,0.1-0.3,0.2-0.3,0.5V425.9z"/>
<path style="fill:#1B1B1C;" d="M217.7,423.7L217.7,423.7l1.5,0c0,0,0.4,0,0.4-0.4c0-0.4,0-0.5,0-0.5l0,0h-1.5c0,0-0.4,0.1-0.4,0.4
	C217.7,423.6,217.7,423.7,217.7,423.7z"/>
<path style="fill:#1B1B1C;" d="M222.9,425.8L222.9,425.8l0.8-2.6c0,0,0.2-0.3,0.6-0.4c0,0,0.4,0,0.6,0.4c0.2,0.5,0.8,2.6,0.8,2.6
	l0,0h-0.5c0,0-0.5,0-0.9-0.7c-0.1,0.2-0.3,0.6-0.8,0.7C223,425.8,222.9,425.8,222.9,425.8z"/>
<path style="fill:#1B1B1C;" d="M220.5,425.7L220.5,425.7l0.6,0c0,0,0.4-0.1,0.4-0.5c0-0.4,0-0.3,0-0.3l0.9,0.2l0,0v-0.5
	c0,0,0-0.3-0.4-0.5c-0.3-0.1-0.4-0.1-0.4-0.1l0.4-0.1c0,0,0.4-0.2,0.4-0.5c0-0.3,0-0.5,0-0.5l0,0c0,0-1.3,0.3-1.5,0.4
	c-0.2,0.1-0.3,0.2-0.3,0.5V425.7z"/>
<path style="fill:#1B1B1C;" d="M236.5,424.4L236.5,424.4l1.5,0c0,0,0.4,0,0.4-0.4c0-0.4,0-0.5,0-0.5l0,0h-1.5c0,0-0.4,0.1-0.4,0.4
	C236.5,424.3,236.5,424.4,236.5,424.4z"/>
<path style="fill:#1B1B1C;" d="M238.4,425.5L238.4,425.5l-1.5,0c0,0-0.4,0-0.4-0.4c0-0.4,0-0.5,0-0.5l0,0h1.5c0,0,0.4,0.1,0.4,0.4
	C238.4,425.3,238.4,425.5,238.4,425.5z"/>
<path style="fill:#1B1B1C;" d="M238,426.5h-1.1c0,0-0.4,0-0.4-0.4c0-0.4,0-0.5,0-0.5l0,0h1.9l0,0c0,0,0,0.2,0,0.4
	C238.5,426.5,238,426.5,238,426.5z"/>
<path style="fill:#1B1B1C;" d="M241.7,426.5L241.7,426.5l0.8-2.6c0,0,0.2-0.3,0.6-0.4c0,0,0.4,0,0.6,0.4c0.2,0.5,0.8,2.6,0.8,2.6
	l0,0H244c0,0-0.5,0-0.9-0.7c-0.1,0.2-0.3,0.6-0.8,0.7C241.8,426.5,241.7,426.5,241.7,426.5z"/>
<path style="fill:#1B1B1C;" d="M239.3,426.5L239.3,426.5l0.6,0c0,0,0.4-0.1,0.4-0.5c0-0.4,0-0.3,0-0.3l0.9,0.2l0,0v-0.5
	c0,0,0-0.3-0.4-0.5c-0.3-0.1-0.4-0.1-0.4-0.1l0.4-0.1c0,0,0.4-0.2,0.4-0.5c0-0.3,0-0.5,0-0.5l0,0c0,0-1.3,0.3-1.5,0.4
	c-0.2,0.1-0.3,0.2-0.3,0.5V426.5z"/>
<path style="fill:#1B1B1C;" d="M232.7,428.2L232.7,428.2l1.5,0c0,0,0.4,0,0.4-0.4c0-0.4,0-0.5,0-0.5l0,0h-1.5c0,0-0.4,0.1-0.4,0.4
	C232.7,428.1,232.7,428.2,232.7,428.2z"/>
<path style="fill:#1B1B1C;" d="M234.7,429.2L234.7,429.2l-1.5,0c0,0-0.4,0-0.4-0.4c0-0.4,0-0.5,0-0.5l0,0h1.5c0,0,0.4,0.1,0.4,0.4
	C234.7,429.1,234.7,429.2,234.7,429.2z"/>
<path style="fill:#1B1B1C;" d="M234.2,430.3h-1.1c0,0-0.4,0-0.4-0.4c0-0.4,0-0.5,0-0.5l0,0h1.9l0,0c0,0,0,0.2,0,0.4
	C234.7,430.3,234.2,430.3,234.2,430.3z"/>
<path style="fill:#1B1B1C;" d="M237.9,430.3L237.9,430.3l0.8-2.6c0,0,0.2-0.3,0.6-0.4c0,0,0.4,0,0.6,0.4c0.2,0.5,0.8,2.6,0.8,2.6
	l0,0h-0.5c0,0-0.5,0-0.9-0.7c-0.1,0.2-0.3,0.6-0.8,0.7C238.1,430.3,237.9,430.3,237.9,430.3z"/>
<path style="fill:#1B1B1C;" d="M235.5,430.3L235.5,430.3l0.6,0c0,0,0.4-0.1,0.4-0.5c0-0.4,0-0.3,0-0.3l0.9,0.2l0,0v-0.5
	c0,0,0-0.3-0.4-0.5c-0.3-0.1-0.4-0.1-0.4-0.1l0.4-0.1c0,0,0.4-0.2,0.4-0.5c0-0.3,0-0.5,0-0.5l0,0c0,0-1.3,0.3-1.5,0.4
	c-0.2,0.1-0.3,0.2-0.3,0.5V430.3z"/>
<path style="fill:#1B1B1C;" d="M228.8,432.1L228.8,432.1l1.5,0c0,0,0.4,0,0.4-0.4c0-0.4,0-0.5,0-0.5l0,0h-1.5c0,0-0.4,0-0.4,0.4
	C228.8,432,228.8,432.1,228.8,432.1z"/>
<path style="fill:#1B1B1C;" d="M230.8,433.1L230.8,433.1l-1.5,0c0,0-0.4,0-0.4-0.4c0-0.4,0-0.5,0-0.5l0,0h1.5c0,0,0.4,0,0.4,0.4
	C230.8,433,230.8,433.1,230.8,433.1z"/>
<path style="fill:#1B1B1C;" d="M230.3,434.2h-1.1c0,0-0.4,0-0.4-0.4c0-0.4,0-0.5,0-0.5l0,0h1.9l0,0c0,0,0,0.2,0,0.4
	C230.8,434.2,230.3,434.2,230.3,434.2z"/>
<path style="fill:#1B1B1C;" d="M234,434.2L234,434.2l0.8-2.6c0,0,0.2-0.3,0.6-0.4c0,0,0.4,0,0.6,0.4c0.2,0.5,0.8,2.6,0.8,2.6l0,0
	h-0.5c0,0-0.5,0-0.9-0.7c-0.1,0.2-0.3,0.6-0.8,0.7C234.2,434.2,234,434.2,234,434.2z"/>
<path style="fill:#1B1B1C;" d="M231.6,434.2L231.6,434.2l0.6,0c0,0,0.4-0.1,0.4-0.5c0-0.4,0-0.3,0-0.3l0.9,0.2l0,0V433
	c0,0,0-0.3-0.4-0.5c-0.3-0.1-0.4-0.1-0.4-0.1l0.4-0.1c0,0,0.4-0.2,0.4-0.5c0-0.3,0-0.5,0-0.5l0,0c0,0-1.3,0.3-1.5,0.4
	c-0.2,0.1-0.3,0.2-0.3,0.5V434.2z"/>
<path style="fill:#1B1B1C;" d="M223.6,427.9L223.6,427.9l1.5,0c0,0,0.4,0,0.4-0.4c0-0.4,0-0.5,0-0.5l0,0H224c0,0-0.4,0-0.4,0.4
	C223.6,427.8,223.6,427.9,223.6,427.9z"/>
<path style="fill:#1B1B1C;" d="M225.5,429L225.5,429l-1.5,0c0,0-0.4,0-0.4-0.4c0-0.4,0-0.5,0-0.5l0,0h1.5c0,0,0.4,0.1,0.4,0.4
	C225.5,428.8,225.5,429,225.5,429z"/>
<path style="fill:#1B1B1C;" d="M228.8,430L228.8,430l0.8-2.6c0,0,0.2-0.3,0.6-0.4c0,0,0.4,0,0.6,0.4c0.2,0.5,0.8,2.6,0.8,2.6l0,0
	h-0.5c0,0-0.5,0-0.9-0.7c-0.1,0.2-0.3,0.6-0.8,0.7C228.9,430,228.8,430,228.8,430z"/>
<path style="fill:#1B1B1C;" d="M226.4,430L226.4,430l0.6,0c0,0,0.4-0.1,0.4-0.5c0-0.4,0-0.3,0-0.3l0.9,0.2l0,0v-0.5
	c0,0,0-0.3-0.4-0.5c-0.3-0.1-0.4-0.1-0.4-0.1l0.4-0.1c0,0,0.4-0.2,0.4-0.5c0-0.3,0-0.5,0-0.5l0,0c0,0-1.3,0.3-1.5,0.4
	c-0.2,0.1-0.3,0.2-0.3,0.5V430z"/>
<path style="fill:#1B1B1C;" d="M255.4,417.4L255.4,417.4l1.5,0c0,0,0.4,0,0.4-0.4c0-0.4,0-0.5,0-0.5l0,0h-1.5c0,0-0.4,0-0.4,0.4
	C255.4,417.2,255.4,417.4,255.4,417.4z"/>
<path style="fill:#1B1B1C;" d="M257.4,418.4L257.4,418.4l-1.5,0c0,0-0.4,0-0.4-0.4c0-0.4,0-0.5,0-0.5l0,0h1.5c0,0,0.4,0,0.4,0.4
	C257.4,418.3,257.4,418.4,257.4,418.4z"/>
<path style="fill:#1B1B1C;" d="M257,419.5h-1.1c0,0-0.4,0-0.4-0.4c0-0.4,0-0.5,0-0.5l0,0h1.9l0,0c0,0,0,0.2,0,0.4
	C257.4,419.5,257,419.5,257,419.5z"/>
<path style="fill:#1B1B1C;" d="M260.6,419.5L260.6,419.5l0.8-2.6c0,0,0.2-0.3,0.6-0.4c0,0,0.4,0,0.6,0.4c0.2,0.5,0.8,2.6,0.8,2.6
	l0,0h-0.5c0,0-0.5,0-0.9-0.7c-0.1,0.2-0.3,0.6-0.8,0.7C260.8,419.4,260.6,419.5,260.6,419.5z"/>
<path style="fill:#1B1B1C;" d="M258.3,419.4L258.3,419.4l0.6,0c0,0,0.4-0.1,0.4-0.5c0-0.4,0-0.3,0-0.3l0.9,0.2l0,0v-0.5
	c0,0,0-0.3-0.4-0.5c-0.3-0.1-0.4-0.1-0.4-0.1l0.4-0.1c0,0,0.4-0.2,0.4-0.5c0-0.3,0-0.5,0-0.5l0,0c0,0-1.3,0.3-1.5,0.4
	c-0.1,0.1-0.3,0.2-0.3,0.5V419.4z"/>
<path style="fill:#1B1B1C;" d="M258.4,411.5L258.4,411.5l1.5,0c0,0,0.4,0,0.4-0.4c0-0.4,0-0.5,0-0.5l0,0h-1.5c0,0-0.4,0.1-0.4,0.4
	C258.4,411.3,258.4,411.5,258.4,411.5z"/>
<path style="fill:#1B1B1C;" d="M260.4,412.5L260.4,412.5l-1.5,0c0,0-0.4,0-0.4-0.4c0-0.4,0-0.5,0-0.5l0,0h1.5c0,0,0.4,0,0.4,0.4
	C260.4,412.4,260.4,412.5,260.4,412.5z"/>
<path style="fill:#1B1B1C;" d="M260,413.6h-1.1c0,0-0.4,0-0.4-0.4c0-0.4,0-0.5,0-0.5l0,0h1.9l0,0c0,0,0,0.2,0,0.4
	C260.4,413.6,260,413.6,260,413.6z"/>
<path style="fill:#1B1B1C;" d="M263.6,413.6L263.6,413.6l0.8-2.6c0,0,0.2-0.3,0.6-0.4c0,0,0.4,0,0.6,0.4c0.2,0.5,0.8,2.6,0.8,2.6
	l0,0h-0.5c0,0-0.5,0-0.9-0.7c-0.1,0.2-0.3,0.6-0.8,0.7C263.8,413.6,263.6,413.6,263.6,413.6z"/>
<path style="fill:#1B1B1C;" d="M261.3,413.5L261.3,413.5l0.6,0c0,0,0.4-0.1,0.4-0.5c0-0.4,0-0.3,0-0.3l0.9,0.2l0,0v-0.5
	c0,0,0-0.3-0.4-0.5c-0.3-0.1-0.4-0.1-0.4-0.1l0.4-0.1c0,0,0.4-0.2,0.4-0.5c0-0.3,0-0.5,0-0.5l0,0c0,0-1.3,0.3-1.5,0.4
	c-0.2,0.1-0.3,0.2-0.3,0.5V413.5z"/>
<path style="fill:#1B1B1C;" d="M269.9,395.2L269.9,395.2l1.5,0c0,0,0.4,0,0.4-0.4c0-0.4,0-0.5,0-0.5l0,0h-1.5c0,0-0.4,0-0.4,0.4
	C269.9,395.1,269.9,395.2,269.9,395.2z"/>
<path style="fill:#1B1B1C;" d="M271.9,396.3L271.9,396.3l-1.5,0c0,0-0.4,0-0.4-0.4c0-0.4,0-0.5,0-0.5l0,0h1.5c0,0,0.4,0,0.4,0.4
	C271.9,396.1,271.9,396.3,271.9,396.3z"/>
<path style="fill:#1B1B1C;" d="M271.5,397.3h-1.1c0,0-0.4,0-0.4-0.4c0-0.4,0-0.5,0-0.5l0,0h1.9l0,0c0,0,0,0.2,0,0.4
	C271.9,397.3,271.5,397.3,271.5,397.3z"/>
<path style="fill:#1B1B1C;" d="M275.1,397.3L275.1,397.3l0.8-2.6c0,0,0.2-0.3,0.6-0.4c0,0,0.4,0,0.6,0.4c0.2,0.5,0.8,2.6,0.8,2.6
	l0,0h-0.5c0,0-0.5,0-0.9-0.7c-0.1,0.2-0.3,0.6-0.8,0.7C275.3,397.3,275.1,397.3,275.1,397.3z"/>
<path style="fill:#1B1B1C;" d="M272.8,397.3L272.8,397.3l0.6,0c0,0,0.4-0.1,0.4-0.5c0-0.4,0-0.3,0-0.3l0.9,0.2l0,0v-0.5
	c0,0,0-0.3-0.4-0.5c-0.3-0.1-0.4-0.1-0.4-0.1l0.4-0.1c0,0,0.4-0.2,0.4-0.5c0-0.3,0-0.5,0-0.5l0,0c0,0-1.3,0.3-1.5,0.4
	c-0.2,0.1-0.3,0.2-0.3,0.5V397.3z"/>
<path style="fill:#1B1B1C;" d="M270.8,390.3L270.8,390.3l1.5,0c0,0,0.4,0,0.4-0.4c0-0.4,0-0.5,0-0.5l0,0h-1.5c0,0-0.4,0-0.4,0.4
	C270.8,390.2,270.8,390.3,270.8,390.3z"/>
<path style="fill:#1B1B1C;" d="M272.8,391.3L272.8,391.3l-1.5,0c0,0-0.4,0-0.4-0.4c0-0.4,0-0.5,0-0.5l0,0h1.5c0,0,0.4,0,0.4,0.4
	C272.8,391.2,272.8,391.3,272.8,391.3z"/>
<path style="fill:#1B1B1C;" d="M272.3,392.4h-1.1c0,0-0.4,0-0.4-0.4c0-0.4,0-0.5,0-0.5l0,0h1.9l0,0c0,0,0,0.2,0,0.4
	C272.8,392.4,272.3,392.4,272.3,392.4z"/>
<path style="fill:#1B1B1C;" d="M276,392.4L276,392.4l0.8-2.6c0,0,0.2-0.3,0.6-0.4c0,0,0.4,0,0.6,0.4c0.2,0.5,0.8,2.6,0.8,2.6l0,0
	h-0.5c0,0-0.5,0-0.9-0.7c-0.1,0.2-0.3,0.6-0.8,0.7C276.2,392.4,276,392.4,276,392.4z"/>
<path style="fill:#1B1B1C;" d="M273.6,392.4L273.6,392.4l0.6,0c0,0,0.4-0.1,0.4-0.5c0-0.4,0-0.3,0-0.3l0.9,0.2l0,0v-0.5
	c0,0,0-0.3-0.4-0.5c-0.3-0.1-0.4-0.1-0.4-0.1l0.4-0.1c0,0,0.4-0.2,0.4-0.5c0-0.3,0-0.5,0-0.5l0,0c0,0-1.3,0.3-1.5,0.4
	c-0.2,0.1-0.3,0.2-0.3,0.5V392.4z"/>
<path style="fill:#1B1B1C;" d="M273.3,384.9L273.3,384.9l1.5,0c0,0,0.4,0,0.4-0.4c0-0.4,0-0.5,0-0.5l0,0h-1.5c0,0-0.4,0.1-0.4,0.4
	C273.3,384.8,273.3,384.9,273.3,384.9z"/>
<path style="fill:#1B1B1C;" d="M275.3,385.9L275.3,385.9l-1.5,0c0,0-0.4,0-0.4-0.4c0-0.4,0-0.5,0-0.5l0,0h1.5c0,0,0.4,0.1,0.4,0.4
	C275.3,385.8,275.3,385.9,275.3,385.9z"/>
<path style="fill:#1B1B1C;" d="M274.8,387h-1.1c0,0-0.4,0-0.4-0.4c0-0.4,0-0.5,0-0.5l0,0h1.9l0,0c0,0,0,0.2,0,0.4
	C275.3,387,274.8,387,274.8,387z"/>
<path style="fill:#1B1B1C;" d="M278.5,387L278.5,387l0.8-2.6c0,0,0.2-0.3,0.6-0.4c0,0,0.4,0,0.6,0.4c0.2,0.5,0.8,2.6,0.8,2.6l0,0
	h-0.5c0,0-0.5,0-0.9-0.7c-0.1,0.2-0.3,0.6-0.8,0.7C278.7,387,278.5,387,278.5,387z"/>
<path style="fill:#1B1B1C;" d="M276.1,386.9L276.1,386.9l0.6,0c0,0,0.4-0.1,0.4-0.5c0-0.4,0-0.3,0-0.3l0.9,0.2l0,0v-0.5
	c0,0,0-0.3-0.4-0.5c-0.3-0.1-0.4-0.1-0.4-0.1l0.4-0.1c0,0,0.4-0.2,0.4-0.5c0-0.3,0-0.5,0-0.5l0,0c0,0-1.3,0.3-1.5,0.4
	c-0.2,0.1-0.3,0.2-0.3,0.5V386.9z"/>
<path style="fill:#1B1B1C;" d="M276.3,379.7L276.3,379.7l1.5,0c0,0,0.4,0,0.4-0.4c0-0.4,0-0.5,0-0.5l0,0h-1.5c0,0-0.4,0-0.4,0.4
	C276.3,379.5,276.3,379.7,276.3,379.7z"/>
<path style="fill:#1B1B1C;" d="M278.3,380.7L278.3,380.7l-1.5,0c0,0-0.4,0-0.4-0.4c0-0.4,0-0.5,0-0.5l0,0h1.5c0,0,0.4,0.1,0.4,0.4
	C278.3,380.6,278.3,380.7,278.3,380.7z"/>
<path style="fill:#1B1B1C;" d="M277.8,381.7h-1.1c0,0-0.4,0-0.4-0.4c0-0.4,0-0.5,0-0.5l0,0h1.9l0,0c0,0,0,0.2,0,0.4
	C278.3,381.8,277.8,381.7,277.8,381.7z"/>
<path style="fill:#1B1B1C;" d="M281.5,381.7L281.5,381.7l0.8-2.6c0,0,0.2-0.3,0.6-0.4c0,0,0.4,0,0.6,0.4c0.2,0.5,0.8,2.6,0.8,2.6
	l0,0h-0.5c0,0-0.5,0-0.9-0.7c-0.1,0.2-0.3,0.6-0.8,0.7C281.7,381.7,281.5,381.7,281.5,381.7z"/>
<path style="fill:#1B1B1C;" d="M279.1,381.7L279.1,381.7l0.6,0c0,0,0.4-0.1,0.4-0.5c0-0.4,0-0.3,0-0.3l0.9,0.2l0,0v-0.5
	c0,0,0-0.3-0.4-0.5c-0.3-0.1-0.4-0.1-0.4-0.1l0.4-0.1c0,0,0.4-0.2,0.4-0.5c0-0.3,0-0.5,0-0.5l0,0c0,0-1.3,0.3-1.5,0.4
	c-0.2,0.1-0.3,0.2-0.3,0.5V381.7z"/>
<path style="fill:#1B1B1C;" d="M279.3,376.8h-1.1c0,0-0.4,0-0.4-0.4c0-0.4,0-0.5,0-0.5l0,0h1.9l0,0c0,0,0,0.2,0,0.4
	C279.8,376.8,279.3,376.8,279.3,376.8z"/>
<path style="fill:#1B1B1C;" d="M280.6,376.8L280.6,376.8l0.6,0c0,0,0.4-0.1,0.4-0.5c0-0.4,0-0.3,0-0.3l0.9,0.2l0,0v-0.5
	c0,0,0-0.3-0.4-0.5c-0.3-0.1-0.4-0.1-0.4-0.1l0.4-0.1c0,0,0.4-0.2,0.4-0.5c0-0.3,0-0.5,0-0.5l0,0c0,0-1.3,0.3-1.5,0.4
	c-0.2,0.1-0.3,0.2-0.3,0.5V376.8z"/>
<path style="fill:#1B1B1C;" d="M279.8,369.8L279.8,369.8l1.5,0c0,0,0.4,0,0.4-0.4c0-0.4,0-0.5,0-0.5l0,0h-1.5c0,0-0.4,0-0.4,0.4
	C279.8,369.7,279.8,369.8,279.8,369.8z"/>
<path style="fill:#1B1B1C;" d="M281.7,370.8L281.7,370.8l-1.5,0c0,0-0.4,0-0.4-0.4c0-0.4,0-0.5,0-0.5l0,0h1.5c0,0,0.4,0,0.4,0.4
	C281.7,370.7,281.7,370.8,281.7,370.8z"/>
<path style="fill:#1B1B1C;" d="M281.3,371.9h-1.1c0,0-0.4,0-0.4-0.4c0-0.4,0-0.5,0-0.5l0,0h1.9l0,0c0,0,0,0.2,0,0.4
	C281.8,371.9,281.3,371.9,281.3,371.9z"/>
<path style="fill:#1B1B1C;" d="M282.6,371.9L282.6,371.9l0.6,0c0,0,0.4-0.1,0.4-0.5c0-0.4,0-0.3,0-0.3l0.9,0.2l0,0v-0.5
	c0,0,0-0.3-0.4-0.5c-0.3-0.1-0.4-0.1-0.4-0.1l0.4-0.1c0,0,0.4-0.2,0.4-0.5c0-0.3,0-0.5,0-0.5l0,0c0,0-1.3,0.3-1.5,0.4
	c-0.2,0.1-0.3,0.2-0.3,0.5V371.9z"/>
<path style="fill:#1B1B1C;" d="M251.2,421.6L251.2,421.6l1.5,0c0,0,0.4,0,0.4-0.4c0-0.4,0-0.5,0-0.5l0,0h-1.5c0,0-0.4,0.1-0.4,0.4
	C251.2,421.5,251.2,421.6,251.2,421.6z"/>
<path style="fill:#1B1B1C;" d="M253.1,422.6L253.1,422.6l-1.5,0c0,0-0.4,0-0.4-0.4c0-0.4,0-0.5,0-0.5l0,0h1.5c0,0,0.4,0,0.4,0.4
	C253.1,422.5,253.1,422.6,253.1,422.6z"/>
<path style="fill:#1B1B1C;" d="M252.7,423.7h-1.1c0,0-0.4,0-0.4-0.4c0-0.4,0-0.5,0-0.5l0,0h1.9l0,0c0,0,0,0.2,0,0.4
	C253.2,423.7,252.7,423.7,252.7,423.7z"/>
<path style="fill:#1B1B1C;" d="M256.4,423.7L256.4,423.7l0.8-2.6c0,0,0.2-0.3,0.6-0.4c0,0,0.4,0,0.6,0.4c0.2,0.5,0.8,2.6,0.8,2.6
	l0,0h-0.5c0,0-0.5,0-0.9-0.7c-0.1,0.2-0.3,0.6-0.8,0.7C256.5,423.7,256.4,423.7,256.4,423.7z"/>
<path style="fill:#1B1B1C;" d="M254,423.7L254,423.7l0.6,0c0,0,0.4-0.1,0.4-0.5c0-0.4,0-0.3,0-0.3l0.9,0.2l0,0v-0.5
	c0,0,0-0.3-0.4-0.5c-0.3-0.1-0.4-0.1-0.4-0.1l0.4-0.1c0,0,0.4-0.2,0.4-0.5c0-0.3,0-0.5,0-0.5l0,0c0,0-1.3,0.3-1.5,0.4
	c-0.2,0.1-0.3,0.2-0.3,0.5V423.7z"/>
<path style="fill:#1B1B1C;" d="M262.6,422.3L262.6,422.3l-1.5,0c0,0-0.4,0-0.4-0.4c0-0.4,0-0.5,0-0.5l0,0h1.5c0,0,0.4,0,0.4,0.4
	C262.6,422.1,262.6,422.3,262.6,422.3z"/>
<path style="fill:#1B1B1C;" d="M262.2,423.3h-1.1c0,0-0.4,0-0.4-0.4c0-0.4,0-0.5,0-0.5l0,0h1.9l0,0c0,0,0,0.2,0,0.4
	C262.7,423.3,262.2,423.3,262.2,423.3z"/>
<path style="fill:#1B1B1C;" d="M263.5,423.3L263.5,423.3l0.6,0c0,0,0.4-0.1,0.4-0.5c0-0.4,0-0.3,0-0.3l0.9,0.2l0,0v-0.5
	c0,0,0-0.3-0.4-0.5c-0.3-0.1-0.4-0.1-0.4-0.1l0.4-0.1c0,0,0.4-0.2,0.4-0.5c0-0.3,0-0.5,0-0.5l0,0c0,0-1.3,0.3-1.5,0.4
	c-0.2,0.1-0.3,0.2-0.3,0.5V423.3z"/>
<path style="fill:#1B1B1C;" d="M245.4,425.8L245.4,425.8l1.5,0c0,0,0.4,0,0.4-0.4c0-0.4,0-0.5,0-0.5l0,0h-1.5c0,0-0.4,0.1-0.4,0.4
	C245.4,425.7,245.4,425.8,245.4,425.8z"/>
<path style="fill:#1B1B1C;" d="M247.4,426.8L247.4,426.8l-1.5,0c0,0-0.4,0-0.4-0.4c0-0.4,0-0.5,0-0.5l0,0h1.5c0,0,0.4,0,0.4,0.4
	C247.4,426.7,247.4,426.8,247.4,426.8z"/>
<path style="fill:#1B1B1C;" d="M247,427.9h-1.1c0,0-0.4,0-0.4-0.4c0-0.4,0-0.5,0-0.5l0,0h1.9l0,0c0,0,0,0.2,0,0.4
	C247.4,427.9,247,427.9,247,427.9z"/>
<path style="fill:#1B1B1C;" d="M250.7,427.9L250.7,427.9l0.8-2.6c0,0,0.2-0.3,0.6-0.4c0,0,0.4,0,0.6,0.4c0.2,0.5,0.8,2.6,0.8,2.6
	l0,0h-0.5c0,0-0.5,0-0.9-0.7c-0.1,0.2-0.3,0.6-0.8,0.7C250.8,427.9,250.7,427.9,250.7,427.9z"/>
<path style="fill:#1B1B1C;" d="M248.3,427.8L248.3,427.8l0.6,0c0,0,0.4-0.1,0.4-0.5c0-0.4,0-0.3,0-0.3l0.9,0.2l0,0v-0.5
	c0,0,0-0.3-0.4-0.5c-0.3-0.1-0.4-0.1-0.4-0.1l0.4-0.1c0,0,0.4-0.2,0.4-0.5c0-0.3,0-0.5,0-0.5l0,0c0,0-1.3,0.3-1.5,0.4
	c-0.2,0.1-0.3,0.2-0.3,0.5V427.8z"/>
<path style="fill:#1B1B1C;" d="M258.1,426L258.1,426l1.5,0c0,0,0.4,0,0.4-0.4c0-0.4,0-0.5,0-0.5l0,0h-1.5c0,0-0.4,0-0.4,0.4
	C258.1,425.8,258.1,426,258.1,426z"/>
<path style="fill:#1B1B1C;" d="M260.1,427L260.1,427l-1.5,0c0,0-0.4,0-0.4-0.4c0-0.4,0-0.5,0-0.5l0,0h1.5c0,0,0.4,0.1,0.4,0.4
	C260.1,426.9,260.1,427,260.1,427z"/>
<path style="fill:#1B1B1C;" d="M259.7,428.1h-1.1c0,0-0.4,0-0.4-0.4c0-0.4,0-0.5,0-0.5l0,0h1.9l0,0c0,0,0,0.2,0,0.4
	C260.1,428.1,259.7,428.1,259.7,428.1z"/>
<path style="fill:#1B1B1C;" d="M261,428L261,428l0.6,0c0,0,0.4-0.1,0.4-0.5c0-0.4,0-0.3,0-0.3l0.9,0.2l0,0v-0.5c0,0,0-0.3-0.4-0.5
	c-0.3-0.1-0.4-0.1-0.4-0.1l0.4-0.1c0,0,0.4-0.2,0.4-0.5c0-0.3,0-0.5,0-0.5l0,0c0,0-1.3,0.3-1.5,0.4c-0.2,0.1-0.3,0.2-0.3,0.5V428z"
	/>
<path style="fill:#1B1B1C;" d="M242.4,430.4L242.4,430.4l1.5,0c0,0,0.4,0,0.4-0.4c0-0.4,0-0.5,0-0.5l0,0h-1.5c0,0-0.4,0-0.4,0.4
	C242.4,430.2,242.4,430.4,242.4,430.4z"/>
<path style="fill:#1B1B1C;" d="M244.4,431.4L244.4,431.4l-1.5,0c0,0-0.4,0-0.4-0.4c0-0.4,0-0.5,0-0.5l0,0h1.5c0,0,0.4,0,0.4,0.4
	C244.4,431.3,244.4,431.4,244.4,431.4z"/>
<path style="fill:#1B1B1C;" d="M244,432.5h-1.1c0,0-0.4,0-0.4-0.4c0-0.4,0-0.5,0-0.5l0,0h1.9l0,0c0,0,0,0.2,0,0.4
	C244.4,432.5,244,432.5,244,432.5z"/>
<path style="fill:#1B1B1C;" d="M247.6,432.5L247.6,432.5l0.8-2.6c0,0,0.2-0.3,0.6-0.4c0,0,0.4,0,0.6,0.4c0.2,0.5,0.8,2.6,0.8,2.6
	l0,0h-0.5c0,0-0.5,0-0.9-0.7c-0.1,0.2-0.3,0.6-0.8,0.7C247.8,432.5,247.6,432.5,247.6,432.5z"/>
<path style="fill:#1B1B1C;" d="M245.3,432.4L245.3,432.4l0.6,0c0,0,0.4-0.1,0.4-0.5c0-0.4,0-0.3,0-0.3l0.9,0.2l0,0v-0.5
	c0,0,0-0.3-0.4-0.5c-0.3-0.1-0.4-0.1-0.4-0.1l0.4-0.1c0,0,0.4-0.2,0.4-0.5c0-0.3,0-0.5,0-0.5l0,0c0,0-1.3,0.3-1.5,0.4
	c-0.2,0.1-0.3,0.2-0.3,0.5V432.4z"/>
<path style="fill:#1B1B1C;" d="M238.7,434.1L238.7,434.1l1.5,0c0,0,0.4,0,0.4-0.4c0-0.4,0-0.5,0-0.5l0,0h-1.5c0,0-0.4,0.1-0.4,0.4
	C238.7,434,238.7,434.1,238.7,434.1z"/>
<path style="fill:#1B1B1C;" d="M240.6,435.2L240.6,435.2l-1.5,0c0,0-0.4,0-0.4-0.4c0-0.4,0-0.5,0-0.5l0,0h1.5c0,0,0.4,0.1,0.4,0.4
	C240.6,435,240.6,435.2,240.6,435.2z"/>
<path style="fill:#1B1B1C;" d="M240.2,436.2h-1.1c0,0-0.4,0-0.4-0.4c0-0.4,0-0.5,0-0.5l0,0h1.9l0,0c0,0,0,0.2,0,0.4
	C240.7,436.3,240.2,436.2,240.2,436.2z"/>
<path style="fill:#1B1B1C;" d="M243.9,436.2L243.9,436.2l0.8-2.6c0,0,0.2-0.3,0.6-0.4c0,0,0.4,0,0.6,0.4c0.2,0.5,0.8,2.6,0.8,2.6
	l0,0h-0.5c0,0-0.5,0-0.9-0.7c-0.1,0.2-0.3,0.6-0.8,0.7C244,436.2,243.9,436.2,243.9,436.2z"/>
<path style="fill:#1B1B1C;" d="M241.5,436.2L241.5,436.2l0.6,0c0,0,0.4-0.1,0.4-0.5c0-0.4,0-0.3,0-0.3l0.9,0.2l0,0v-0.5
	c0,0,0-0.3-0.4-0.5c-0.3-0.1-0.4-0.1-0.4-0.1l0.4-0.1c0,0,0.4-0.2,0.4-0.5c0-0.3,0-0.5,0-0.5l0,0c0,0-1.3,0.3-1.5,0.4
	c-0.2,0.1-0.3,0.2-0.3,0.5V436.2z"/>
<path style="fill:#1B1B1C;" d="M234.8,438L234.8,438l1.5,0c0,0,0.4,0,0.4-0.4c0-0.4,0-0.5,0-0.5l0,0h-1.5c0,0-0.4,0.1-0.4,0.4
	C234.8,437.9,234.8,438,234.8,438z"/>
<path style="fill:#1B1B1C;" d="M236.7,439.1L236.7,439.1l-1.5,0c0,0-0.4,0-0.4-0.4c0-0.4,0-0.5,0-0.5l0,0h1.5c0,0,0.4,0.1,0.4,0.4
	C236.7,438.9,236.7,439.1,236.7,439.1z"/>
<path style="fill:#1B1B1C;" d="M236.3,440.1h-1.1c0,0-0.4,0-0.4-0.4c0-0.4,0-0.5,0-0.5l0,0h1.9l0,0c0,0,0,0.2,0,0.4
	C236.8,440.2,236.3,440.1,236.3,440.1z"/>
<path style="fill:#1B1B1C;" d="M240,440.1L240,440.1l0.8-2.6c0,0,0.2-0.3,0.6-0.4c0,0,0.4,0,0.6,0.4c0.2,0.5,0.8,2.6,0.8,2.6l0,0
	h-0.5c0,0-0.5,0-0.9-0.7c-0.1,0.2-0.3,0.6-0.8,0.7C240.1,440.1,240,440.1,240,440.1z"/>
<path style="fill:#1B1B1C;" d="M237.6,440.1L237.6,440.1l0.6,0c0,0,0.4-0.1,0.4-0.5c0-0.4,0-0.3,0-0.3l0.9,0.2l0,0V439
	c0,0,0-0.3-0.4-0.5c-0.3-0.1-0.4-0.1-0.4-0.1l0.4-0.1c0,0,0.4-0.2,0.4-0.5c0-0.3,0-0.5,0-0.5l0,0c0,0-1.3,0.3-1.5,0.4
	c-0.2,0.1-0.3,0.2-0.3,0.5V440.1z"/>
<path style="fill:#1B1B1C;" d="M230.6,440.1L230.6,440.1l0.8-2.6c0,0,0.2-0.3,0.6-0.4c0,0,0.4,0,0.6,0.4c0.2,0.5,0.8,2.6,0.8,2.6
	l0,0h-0.5c0,0-0.5,0-0.9-0.7c-0.1,0.2-0.3,0.6-0.8,0.7C230.7,440.1,230.6,440.1,230.6,440.1z"/>
<path style="fill:#1B1B1C;" d="M228.2,440.1L228.2,440.1l0.6,0c0,0,0.4-0.1,0.4-0.5c0-0.4,0-0.3,0-0.3l0.9,0.2l0,0V439
	c0,0,0-0.3-0.4-0.5c-0.3-0.1-0.4-0.1-0.4-0.1l0.4-0.1c0,0,0.4-0.2,0.4-0.5c0-0.3,0-0.5,0-0.5l0,0c0,0-1.3,0.3-1.5,0.4
	c-0.2,0.1-0.3,0.2-0.3,0.5V440.1z"/>
<path style="fill:#1B1B1C;" d="M235.2,442.1L235.2,442.1l1.5,0c0,0,0.4,0,0.4-0.4c0-0.4,0-0.5,0-0.5l0,0h-1.5c0,0-0.4,0-0.4,0.4
	C235.2,442,235.2,442.1,235.2,442.1z"/>
<path style="fill:#1B1B1C;" d="M237.2,443.1L237.2,443.1l-1.5,0c0,0-0.4,0-0.4-0.4c0-0.4,0-0.5,0-0.5l0,0h1.5c0,0,0.4,0.1,0.4,0.4
	C237.2,443,237.2,443.1,237.2,443.1z"/>
<path style="fill:#1B1B1C;" d="M236.8,444.2h-1.1c0,0-0.4,0-0.4-0.4c0-0.4,0-0.5,0-0.5l0,0h1.9l0,0c0,0,0,0.2,0,0.4
	C237.2,444.2,236.8,444.2,236.8,444.2z"/>
<path style="fill:#1B1B1C;" d="M240.4,444.2L240.4,444.2l0.8-2.6c0,0,0.2-0.3,0.6-0.4c0,0,0.4,0,0.6,0.4c0.2,0.5,0.8,2.6,0.8,2.6
	l0,0h-0.5c0,0-0.5,0-0.9-0.7c-0.1,0.2-0.3,0.6-0.8,0.7C240.6,444.2,240.4,444.2,240.4,444.2z"/>
<path style="fill:#1B1B1C;" d="M238.1,444.2L238.1,444.2l0.6,0c0,0,0.4-0.1,0.4-0.5c0-0.4,0-0.3,0-0.3l0.9,0.2l0,0V443
	c0,0,0-0.3-0.4-0.5c-0.3-0.1-0.4-0.1-0.4-0.1l0.4-0.1c0,0,0.4-0.2,0.4-0.5c0-0.3,0-0.5,0-0.5l0,0c0,0-1.3,0.3-1.5,0.4
	c-0.2,0.1-0.3,0.2-0.3,0.5V444.2z"/>
<path style="fill:#1B1B1C;" d="M244.7,442.1L244.7,442.1l1.5,0c0,0,0.4,0,0.4-0.4c0-0.4,0-0.5,0-0.5l0,0h-1.5c0,0-0.4,0.1-0.4,0.4
	C244.7,442,244.7,442.1,244.7,442.1z"/>
<path style="fill:#1B1B1C;" d="M246.6,443.1L246.6,443.1l-1.5,0c0,0-0.4,0-0.4-0.4c0-0.4,0-0.5,0-0.5l0,0h1.5c0,0,0.4,0,0.4,0.4
	C246.6,443,246.6,443.1,246.6,443.1z"/>
<path style="fill:#1B1B1C;" d="M246.2,444.2h-1.1c0,0-0.4,0-0.4-0.4c0-0.4,0-0.5,0-0.5l0,0h1.9l0,0c0,0,0,0.2,0,0.4
	C246.7,444.2,246.2,444.2,246.2,444.2z"/>
<path style="fill:#1B1B1C;" d="M249.9,444.2L249.9,444.2l0.8-2.6c0,0,0.2-0.3,0.6-0.4c0,0,0.4,0,0.6,0.4c0.2,0.5,0.8,2.6,0.8,2.6
	l0,0h-0.5c0,0-0.5,0-0.9-0.7c-0.1,0.2-0.3,0.6-0.8,0.7C250,444.2,249.9,444.2,249.9,444.2z"/>
<path style="fill:#1B1B1C;" d="M247.5,444.2L247.5,444.2l0.6,0c0,0,0.4-0.1,0.4-0.5c0-0.4,0-0.3,0-0.3l0.9,0.2l0,0V443
	c0,0,0-0.3-0.4-0.5c-0.3-0.1-0.4-0.1-0.4-0.1l0.4-0.1c0,0,0.4-0.2,0.4-0.5c0-0.3,0-0.5,0-0.5l0,0c0,0-1.3,0.3-1.5,0.4
	c-0.2,0.1-0.3,0.2-0.3,0.5V444.2z"/>
<path style="fill:#1B1B1C;" d="M238.7,446.5L238.7,446.5l1.5,0c0,0,0.4,0,0.4-0.4c0-0.4,0-0.5,0-0.5l0,0h-1.5c0,0-0.4,0-0.4,0.4
	C238.7,446.4,238.7,446.5,238.7,446.5z"/>
<path style="fill:#1B1B1C;" d="M240.6,447.6L240.6,447.6l-1.5,0c0,0-0.4,0-0.4-0.4c0-0.4,0-0.5,0-0.5l0,0h1.5c0,0,0.4,0.1,0.4,0.4
	C240.6,447.5,240.6,447.6,240.6,447.6z"/>
<path style="fill:#1B1B1C;" d="M240.2,448.6h-1.1c0,0-0.4,0-0.4-0.4c0-0.4,0-0.5,0-0.5l0,0h1.9l0,0c0,0,0,0.2,0,0.4
	C240.7,448.7,240.2,448.6,240.2,448.6z"/>
<path style="fill:#1B1B1C;" d="M243.9,448.6L243.9,448.6l0.8-2.6c0,0,0.2-0.3,0.6-0.4c0,0,0.4,0,0.6,0.4c0.2,0.5,0.8,2.6,0.8,2.6
	l0,0h-0.5c0,0-0.5,0-0.9-0.7c-0.1,0.2-0.3,0.6-0.8,0.7C244,448.6,243.9,448.6,243.9,448.6z"/>
<path style="fill:#1B1B1C;" d="M241.5,448.6L241.5,448.6l0.6,0c0,0,0.4-0.1,0.4-0.5c0-0.4,0-0.3,0-0.3l0.9,0.2l0,0v-0.5
	c0,0,0-0.3-0.4-0.5c-0.3-0.1-0.4-0.1-0.4-0.1l0.4-0.1c0,0,0.4-0.2,0.4-0.5c0-0.3,0-0.5,0-0.5l0,0c0,0-1.3,0.3-1.5,0.4
	c-0.2,0.1-0.3,0.2-0.3,0.5V448.6z"/>
<path style="fill:#1B1B1C;" d="M247.6,446.5L247.6,446.5l1.5,0c0,0,0.4,0,0.4-0.4c0-0.4,0-0.5,0-0.5l0,0H248c0,0-0.4,0.1-0.4,0.4
	C247.6,446.3,247.6,446.5,247.6,446.5z"/>
<path style="fill:#1B1B1C;" d="M249.5,447.5L249.5,447.5l-1.5,0c0,0-0.4,0-0.4-0.4c0-0.4,0-0.5,0-0.5l0,0h1.5c0,0,0.4,0.1,0.4,0.4
	C249.5,447.4,249.5,447.5,249.5,447.5z"/>
<path style="fill:#1B1B1C;" d="M249.1,448.5H248c0,0-0.4,0-0.4-0.4c0-0.4,0-0.5,0-0.5l0,0h1.9l0,0c0,0,0,0.2,0,0.4
	C249.6,448.6,249.1,448.5,249.1,448.5z"/>
<path style="fill:#1B1B1C;" d="M250.4,448.5L250.4,448.5l0.6,0c0,0,0.4-0.1,0.4-0.5c0-0.4,0-0.3,0-0.3l0.9,0.2l0,0v-0.5
	c0,0,0-0.3-0.4-0.5c-0.3-0.1-0.4-0.1-0.4-0.1l0.4-0.1c0,0,0.4-0.2,0.4-0.5c0-0.3,0-0.5,0-0.5l0,0c0,0-1.3,0.3-1.5,0.4
	c-0.2,0.1-0.3,0.2-0.3,0.5V448.5z"/>
<path style="fill:#1B1B1C;" d="M238.6,451.7L238.6,451.7l1.5,0c0,0,0.4,0,0.4-0.4c0-0.4,0-0.5,0-0.5l0,0H239c0,0-0.4,0-0.4,0.4
	C238.6,451.6,238.6,451.7,238.6,451.7z"/>
<path style="fill:#1B1B1C;" d="M240.5,452.7L240.5,452.7l-1.5,0c0,0-0.4,0-0.4-0.4c0-0.4,0-0.5,0-0.5l0,0h1.5c0,0,0.4,0.1,0.4,0.4
	C240.5,452.6,240.5,452.7,240.5,452.7z"/>
<path style="fill:#1B1B1C;" d="M240.1,453.8H239c0,0-0.4,0-0.4-0.4c0-0.4,0-0.5,0-0.5l0,0h1.9l0,0c0,0,0,0.2,0,0.4
	C240.6,453.8,240.1,453.8,240.1,453.8z"/>
<path style="fill:#1B1B1C;" d="M243.8,453.8L243.8,453.8l0.8-2.6c0,0,0.2-0.3,0.6-0.4c0,0,0.4,0,0.6,0.4c0.2,0.5,0.8,2.6,0.8,2.6
	l0,0h-0.5c0,0-0.5,0-0.9-0.7c-0.1,0.2-0.3,0.6-0.8,0.7C243.9,453.8,243.8,453.8,243.8,453.8z"/>
<path style="fill:#1B1B1C;" d="M241.4,453.7L241.4,453.7l0.6,0c0,0,0.4-0.1,0.4-0.5c0-0.4,0-0.3,0-0.3l0.9,0.2l0,0v-0.5
	c0,0,0-0.3-0.4-0.5c-0.3-0.1-0.4-0.1-0.4-0.1l0.4-0.1c0,0,0.4-0.2,0.4-0.5c0-0.3,0-0.5,0-0.5l0,0c0,0-1.3,0.3-1.5,0.4
	c-0.2,0.1-0.3,0.2-0.3,0.5V453.7z"/>
<path style="fill:#1B1B1C;" d="M244.3,438L244.3,438l1.5,0c0,0,0.4,0,0.4-0.4c0-0.4,0-0.5,0-0.5l0,0h-1.5c0,0-0.4,0.1-0.4,0.4
	C244.3,437.9,244.3,438,244.3,438z"/>
<path style="fill:#1B1B1C;" d="M246.3,439.1L246.3,439.1l-1.5,0c0,0-0.4,0-0.4-0.4c0-0.4,0-0.5,0-0.5l0,0h1.5c0,0,0.4,0.1,0.4,0.4
	C246.3,438.9,246.3,439.1,246.3,439.1z"/>
<path style="fill:#1B1B1C;" d="M245.9,440.1h-1.1c0,0-0.4,0-0.4-0.4c0-0.4,0-0.5,0-0.5l0,0h1.9l0,0c0,0,0,0.2,0,0.4
	C246.3,440.2,245.9,440.1,245.9,440.1z"/>
<path style="fill:#1B1B1C;" d="M249.5,440.1L249.5,440.1l0.8-2.6c0,0,0.2-0.3,0.6-0.4c0,0,0.4,0,0.6,0.4c0.2,0.5,0.8,2.6,0.8,2.6
	l0,0h-0.5c0,0-0.5,0-0.9-0.7c-0.1,0.2-0.3,0.6-0.8,0.7C249.7,440.1,249.5,440.1,249.5,440.1z"/>
<path style="fill:#1B1B1C;" d="M247.2,440.1L247.2,440.1l0.6,0c0,0,0.4-0.1,0.4-0.5c0-0.4,0-0.3,0-0.3l0.9,0.2l0,0V439
	c0,0,0-0.3-0.4-0.5c-0.3-0.1-0.4-0.1-0.4-0.1l0.4-0.1c0,0,0.4-0.2,0.4-0.5c0-0.3,0-0.5,0-0.5l0,0c0,0-1.3,0.3-1.5,0.4
	c-0.2,0.1-0.3,0.2-0.3,0.5V440.1z"/>
<path style="fill:#1B1B1C;" d="M247.6,433.9L247.6,433.9l1.5,0c0,0,0.4,0,0.4-0.4c0-0.4,0-0.5,0-0.5l0,0H248c0,0-0.4,0-0.4,0.4
	C247.6,433.8,247.6,433.9,247.6,433.9z"/>
<path style="fill:#1B1B1C;" d="M249.6,435L249.6,435l-1.5,0c0,0-0.4,0-0.4-0.4c0-0.4,0-0.5,0-0.5l0,0h1.5c0,0,0.4,0.1,0.4,0.4
	C249.6,434.9,249.6,435,249.6,435z"/>
<path style="fill:#1B1B1C;" d="M249.2,436H248c0,0-0.4,0-0.4-0.4c0-0.4,0-0.5,0-0.5l0,0h1.9l0,0c0,0,0,0.2,0,0.4
	C249.6,436.1,249.2,436,249.2,436z"/>
<path style="fill:#1B1B1C;" d="M252.8,436L252.8,436l0.8-2.6c0,0,0.2-0.3,0.6-0.4c0,0,0.4,0,0.6,0.4c0.2,0.5,0.8,2.6,0.8,2.6l0,0
	h-0.5c0,0-0.5,0-0.9-0.7c-0.1,0.2-0.3,0.6-0.8,0.7C253,436,252.8,436,252.8,436z"/>
<path style="fill:#1B1B1C;" d="M250.5,436L250.5,436l0.6,0c0,0,0.4-0.1,0.4-0.5c0-0.4,0-0.3,0-0.3l0.9,0.2l0,0v-0.5
	c0,0,0-0.3-0.4-0.5c-0.3-0.1-0.4-0.1-0.4-0.1l0.4-0.1c0,0,0.4-0.2,0.4-0.5c0-0.3,0-0.5,0-0.5l0,0c0,0-1.3,0.3-1.5,0.4
	c-0.1,0.1-0.3,0.2-0.3,0.5V436z"/>
<path style="fill:#1B1B1C;" d="M252,430.3L252,430.3l1.5,0c0,0,0.4,0,0.4-0.4c0-0.4,0-0.5,0-0.5l0,0h-1.5c0,0-0.4,0-0.4,0.4
	C252,430.2,252,430.3,252,430.3z"/>
<path style="fill:#1B1B1C;" d="M253.9,431.3L253.9,431.3l-1.5,0c0,0-0.4,0-0.4-0.4c0-0.4,0-0.5,0-0.5l0,0h1.5c0,0,0.4,0.1,0.4,0.4
	C253.9,431.2,253.9,431.3,253.9,431.3z"/>
<path style="fill:#1B1B1C;" d="M253.5,432.4h-1.1c0,0-0.4,0-0.4-0.4c0-0.4,0-0.5,0-0.5l0,0h1.9l0,0c0,0,0,0.2,0,0.4
	C254,432.4,253.5,432.4,253.5,432.4z"/>
<path style="fill:#1B1B1C;" d="M257.2,432.4L257.2,432.4l0.8-2.6c0,0,0.2-0.3,0.6-0.4c0,0,0.4,0,0.6,0.4c0.2,0.5,0.8,2.6,0.8,2.6
	l0,0h-0.5c0,0-0.5,0-0.9-0.7c-0.1,0.2-0.3,0.6-0.8,0.7C257.3,432.4,257.2,432.4,257.2,432.4z"/>
<path style="fill:#1B1B1C;" d="M254.8,432.3L254.8,432.3l0.6,0c0,0,0.4-0.1,0.4-0.5c0-0.4,0-0.3,0-0.3l0.9,0.2l0,0v-0.5
	c0,0,0-0.3-0.4-0.5c-0.3-0.1-0.4-0.1-0.4-0.1l0.4-0.1c0,0,0.4-0.2,0.4-0.5c0-0.3,0-0.5,0-0.5l0,0c0,0-1.3,0.3-1.5,0.4
	c-0.2,0.1-0.3,0.2-0.3,0.5V432.3z"/>
<path style="fill:#ABABAB;stroke:#1B1B1C;stroke-width:4;stroke-miterlimit:10;" d="M272.9,348.2c0-18.3-14.8-33.1-33.1-33.1
	s-33.1,14.8-33.1,33.1c0,4.7,1,9.1,2.7,13.1c-0.1,0.3-0.1,0.5-0.1,0.8v41.8c0,1.9,1.6,3.5,3.5,3.5h54.8c1.9,0,3.5-1.6,3.5-3.5v-41.8
	c0-0.7-0.2-1.3-0.5-1.8C272.1,356.5,272.9,352.5,272.9,348.2z"/>
<path style="fill:#FFFFFF;stroke:#1B1B1C;stroke-width:2;stroke-linecap:round;stroke-linejoin:round;stroke-miterlimit:10;" d="
	M218.9,401.2c0,0.9-0.7,1.6-1.6,1.6l0,0c-0.9,0-1.6-0.7-1.6-1.6v-18.9c0-0.9,0.7-1.6,1.6-1.6l0,0c0.9,0,1.6,0.7,1.6,1.6V401.2z"/>
<path style="fill:#FFFFFF;stroke:#1B1B1C;stroke-width:2;stroke-linecap:round;stroke-linejoin:round;stroke-miterlimit:10;" d="
	M230.3,401.2c0,0.9-0.7,1.6-1.6,1.6l0,0c-0.9,0-1.6-0.7-1.6-1.6v-18.9c0-0.9,0.7-1.6,1.6-1.6l0,0c0.9,0,1.6,0.7,1.6,1.6V401.2z"/>
<path style="fill:#FFFFFF;stroke:#1B1B1C;stroke-width:2;stroke-linecap:round;stroke-linejoin:round;stroke-miterlimit:10;" d="
	M242.9,401.2c0,0.9-0.7,1.6-1.6,1.6l0,0c-0.9,0-1.6-0.7-1.6-1.6v-18.9c0-0.9,0.7-1.6,1.6-1.6l0,0c0.9,0,1.6,0.7,1.6,1.6V401.2z"/>
<path style="fill:#FFFFFF;stroke:#1B1B1C;stroke-width:2;stroke-linecap:round;stroke-linejoin:round;stroke-miterlimit:10;" d="
	M254.3,401.2c0,0.9-0.7,1.6-1.6,1.6l0,0c-0.9,0-1.6-0.7-1.6-1.6v-18.9c0-0.9,0.7-1.6,1.6-1.6l0,0c0.9,0,1.6,0.7,1.6,1.6V401.2z"/>
<path style="fill:#FFFFFF;stroke:#1B1B1C;stroke-width:2;stroke-linecap:round;stroke-linejoin:round;stroke-miterlimit:10;" d="
	M264.6,401.2c0,0.9-0.7,1.6-1.6,1.6l0,0c-0.9,0-1.6-0.7-1.6-1.6v-18.9c0-0.9,0.7-1.6,1.6-1.6l0,0c0.9,0,1.6,0.7,1.6,1.6V401.2z"/>
<g>
	<g>
		<path style="fill:#1B1B1C;" d="M227.4,333.3c-0.1,6.4-2.2,14.4-8.5,17.3c-2.5,1.1-0.2,2.5,1.6,1.7c7.5-3.4,10.7-11.6,10.8-19.4
			C231.3,331.1,227.5,331.9,227.4,333.3L227.4,333.3z"/>
	</g>
</g>
<g>
	<g>
		<path style="fill:#1B1B1C;" d="M219.4,337c4.4,4.1,8.6,8.4,12.3,13.2c0.7,0.9,4.1-0.7,3.9-1c-3.8-4.9-8-9.3-12.5-13.5
			C222.3,335,218.9,336.5,219.4,337L219.4,337z"/>
	</g>
</g>
<g>
	<g>
		<path style="fill:#1B1B1C;" d="M257,334.4c-0.1,6.1-3.8,10.9-6.4,16.1c-0.9,1.8,3,1.5,3.6,0.2c2.8-5.4,6.6-10.5,6.7-16.7
			C260.9,332.2,257,333,257,334.4L257,334.4z"/>
	</g>
</g>
<g>
	<g>
		<path style="fill:#1B1B1C;" d="M248.5,335.2c2.1,2.8,4,5.8,6.1,8.6c1.8,2.4,4.6,4,5.8,6.9c0.6,1.4,4.4,0.2,3.9-1
			c-1-2.5-3-4.2-4.9-6.1c-2.8-2.8-4.8-6.6-7.2-9.8C251.2,332.6,247.5,333.9,248.5,335.2L248.5,335.2z"/>
	</g>
</g>
<path style="fill:#1B1B1C;stroke:#ABABAB;stroke-miterlimit:10;" d="M239.2,370.4c-1.9,0-3.5-1.6-3.5-3.5V363c0-1.9,1.6-3.5,3.5-3.5
	h2.3"/>
<path style="fill:#1B1B1C;stroke:#ABABAB;stroke-miterlimit:10;" d="M244.3,370.4c1.9,0,3.5-1.6,3.5-3.5V363c0-1.9-1.6-3.5-3.5-3.5
	h-2.3"/>
<path style="fill:#ABABAB;stroke:#1B1C1C;stroke-width:4;stroke-miterlimit:10;" d="M282.4,128.5l-76.5-0.4c0,0-2.1-29.6,1.3-26.6
	c3.5,3,74.7,5.1,74.7,5.1L282.4,128.5z"/>
<path style="fill:#7D4153;" d="M289.3,118.4c-0.1,6.2-5.1,11.1-11,11l-65.9-1.3c-6-0.1-10.7-5.2-10.6-11.4l0,0
	c0.1-6.2,4.8-13,10.7-12.9l65.6,4.6C284.1,108.5,289.4,112.2,289.3,118.4L289.3,118.4z"/>
<path style="fill:#565656;stroke:#1B1B1C;stroke-width:9;stroke-miterlimit:10;" d="M201.4,129c0,0-30.2,3.5-40.1-8.5
	c-6.2-27.2-20.9-105.8,82.5-113.8c24.4-0.7,74.8,23.4,80.5,44.6c3.9,14.1,4.2,16.4,5.8,22.1c1.6,5.7,9.6,54.3-15.3,56.1
	c-26.5-0.5-32.2,2.6-33.7-5.3c-0.4-7.9,6.8-41.2-7.3-42.1c-11.3-0.8-61.1-9.9-63.7,7.5C208.1,107.6,214.4,127.5,201.4,129z"/>
<path style="fill:#7D4153;stroke:#1B1C1C;stroke-width:6;stroke-linecap:round;stroke-linejoin:round;stroke-miterlimit:10;" d="
	M281.4,112.9c0,0-76.8-3.5-81.6,0.2c-4.7,3.7-11,7.9-11.3,10.1l0,0c-0.1,6.4,10.7,10.3,10.7,10.3l81.8-3.1L281.4,112.9z"/>
<g>
	<g>
		<path style="fill:#1B1B1C;" d="M242.9,5.8c-0.1,11.4,1.9,22.7,2.5,34.1c0.6,12.3,0.4,24.7,0.2,37c0,0.3,1.9,0,1.9-0.5
			c0.2-11.7,0.4-23.4-0.1-35.1c-0.5-12-2.6-23.9-2.5-36C244.8,5,242.9,5.3,242.9,5.8L242.9,5.8z"/>
	</g>
</g>
<path style="fill:#191A1A;" d="M246,115.7"/>
<path style="fill:#191A1A;" d="M240.8,114.4"/>
<path style="fill:#191A1A;" d="M315.9,122c-12.5,2.7-27.3,2.1-27.3,2.1s18.6-0.2,24.3-2.3"/>
<path style="fill:#191A1A;" d="M163.9,73c0,0-1.4,20,5,50.9c0.3,1.2,1.2,0.2,1-0.8C169.9,123.1,164.2,93,163.9,73z"/>
<path style="fill:#ABABAB;stroke:#1B1B1C;stroke-width:3;stroke-miterlimit:10;" d="M223.2,53.3l0.1,0.1l8.8,0.2
	c0,0,2.2-0.2,2.5-2.3c0.1-2.1,0.1-2.9,0.1-2.9l-0.1-0.1l-8.8-0.2c0,0-2.3,0.2-2.5,2.4C223.3,52.6,223.2,53.3,223.2,53.3z"/>
<path style="fill:#ABABAB;stroke:#1B1B1C;stroke-width:3;stroke-miterlimit:10;" d="M234.5,59.6l-0.1,0.1l-8.8-0.2
	c0,0-2.2-0.3-2.4-2.4c0-2.1,0.1-2.9,0.1-2.9l0.1-0.1l8.8,0.2c0,0,2.3,0.3,2.4,2.5C234.5,58.9,234.5,59.6,234.5,59.6z"/>
<path style="fill:#ABABAB;stroke:#1B1B1C;stroke-width:3;stroke-miterlimit:10;" d="M231.9,65.7l-6.5-0.1c0,0-2.2-0.3-2.4-2.4
	c0-2.1,0.1-2.9,0.1-2.9l0.1-0.1l11.2,0.2l0.1,0.1c0,0,0,0.9,0,2.3C234.6,65.9,231.9,65.7,231.9,65.7z"/>
<path style="fill:#ABABAB;stroke:#1B1B1C;stroke-width:3;stroke-miterlimit:10;" d="M253.3,66.1l-0.1-0.2l5-14.9
	c0,0,1.1-1.9,3.5-2.1c0,0,2.4-0.1,3.5,2.4c0.8,2.8,4.4,15,4.4,15l-0.1,0.1l-2.9-0.1c0,0-2.8,0.1-5.1-4.2c-0.6,1-1.8,3.3-5,4
	C254.1,66.1,253.3,66.1,253.3,66.1z"/>
<path style="fill:#ABABAB;stroke:#1B1B1C;stroke-width:3;stroke-miterlimit:10;" d="M239.5,65.7l0.1,0.1l3.2,0.1
	c0,0,2.5-0.5,2.4-2.8c0-2.3,0-1.9,0-1.9l5.1,1.3l0.2-0.1l0.1-3.1c0,0,0.2-1.9-2.3-3.2c-1.6-0.4-2.3-0.6-2.3-0.6l2.5-0.6
	c0,0,2.2-1.1,2.1-3c0-1.9,0.1-3.1,0.1-3.1l0,0c0,0-7.5,1.5-9,2c-0.9,0.6-1.9,1.3-2.1,3L239.5,65.7z"/>
<polygon style="fill:#8090C8;stroke:#1B1B1C;stroke-width:2;stroke-miterlimit:10;" points="261.7,49.6 263.1,54.5 268.2,54.6 
	264,57.4 265.5,62.3 261.5,59.2 257.3,62.1 259,57.3 255,54.3 260,54.4 "/>
<g>
	<g>
		<path style="fill:#1B1B1C;" d="M270.1,67.7c0.4,2.7-6.8,1.1-8.6,0.9c-2.7-0.4-5.5-1-8.2-1.3c-11.5-1.3-22.4-1.2-33.2,3.5
			c-3.7,1.6-0.3,3.7,2.3,2.6c12.2-5.2,24.5-2.8,37.2-1.3c4.4,0.5,17.3,1.8,16.2-5.9C275.6,64.1,269.8,65.4,270.1,67.7L270.1,67.7z"
			/>
	</g>
</g>
<g>
	<path style="fill:#7D4153;" d="M252.5,112.5c1,5.4,2,14.3-1,18.8l6.4-1c2.5-5.4,2.2-11.9,1.2-17.3L252.5,112.5z"/>
	<g>
		<path style="fill:#1B1C1C;" d="M250.6,113c1,5.7,2.3,13-0.9,18.3c-0.6,1,0.9,1.2,1.5,1.1c2.3-0.3,6.4-0.1,8.2-1.7
			c1.8-1.5,2-5.8,2.2-7.9c0.4-3.4,0-6.9-0.6-10.2c-0.1-0.5-0.8-0.5-1.2-0.5c-2.2-0.2-4.5-0.3-6.7-0.5c-1.4-0.1-4.1,1.9-1.5,2.1
			c2.2,0.2,4.5,0.3,6.7,0.5c-0.4-0.2-0.8-0.4-1.2-0.5c1,5.8,1,11.5-1.2,17.1c0.7-0.4,1.5-0.9,2.2-1.3c-2.1,0.3-4.3,0.7-6.4,1
			c0.5,0.4,1,0.7,1.5,1.1c3.3-5.6,2.2-13.2,1.1-19.3C254.3,110.7,250.4,111.7,250.6,113z"/>
	</g>
</g>
<g>
	<g>
		<path style="fill:#1B1B1C;" d="M97.3,383.2c8.9,3.1,18.5,3.5,27.9,3.6c1.9,0,3.9-0.4,5.5-1.5c1.2-0.8,1.1-1.9-0.5-1.9
			c-8.9,0-18-0.4-26.5-3.4C101.7,379.4,94.7,382.4,97.3,383.2L97.3,383.2z"/>
	</g>
</g>
<g>
	<g>
		<path style="fill:#1B1B1C;" d="M100.6,369.9c8.9,3.9,17.9,3,27.3,3.9c3.4,0.3,8.1-4.5,2.8-5.1c-8.1-0.8-16.4,0.4-24.1-3
			C104,364.6,97,368.3,100.6,369.9L100.6,369.9z"/>
	</g>
</g>
<g>
	<g>
		<path style="fill:#1B1B1C;" d="M100,393.9c1.3,0,2.6,1,3.9,1.4c2.2,0.7,4.6,1,6.9,1.3c4.5,0.5,9.1-0.1,13.5-0.1
			c4.3,0,6.1-5.3,0.8-5.2c-4.4,0-8.7,0.4-13.1-0.1c-3.4-0.4-5.9-2.5-9.3-2.5c-1.8,0-4.1,0.5-5.1,2.3
			C96.9,392.6,98.5,393.9,100,393.9L100,393.9z"/>
	</g>
</g>
<path style="fill:#ABABAB;stroke:#1B1B1C;stroke-width:3;stroke-miterlimit:10;" d="M247.8,500.6l-0.1-0.2l6.2-19.5
	c0,0,1.4-2.5,4.5-2.8c0,0,3.1-0.2,4.6,3c1.2,3.6,6.1,19.3,6.1,19.3l-0.1,0.2H265c0,0-3.6,0.2-6.7-5.4c-0.7,1.3-2.2,4.4-6.3,5.4
	C248.9,500.6,247.8,500.6,247.8,500.6z"/>
<path style="fill:#ABABAB;stroke:#1B1B1C;stroke-width:3;stroke-miterlimit:10;" d="M229.8,500.4l0.1,0.1h4.1c0,0,3.2-0.7,3.1-3.7
	c-0.1-2.9,0-2.5,0-2.5l6.7,1.6l0.2-0.1v-4c0,0,0.1-2.5-3-4.1c-2-0.5-2.9-0.8-2.9-0.8l3.3-0.9c0,0,2.8-1.5,2.7-4c-0.1-2.4,0-4,0-4
	l-0.1-0.1c0,0-9.7,2.1-11.6,2.9c-1.2,0.8-2.4,1.8-2.6,3.9V500.4z"/>
<polygon style="fill:#A4AAD5;stroke:#1B1B1C;stroke-width:3;stroke-miterlimit:10;" points="258.2,479 260.3,485.2 266.8,485.2 
	261.5,489.1 263.5,495.3 258.2,491.5 252.9,495.3 254.9,489.1 249.6,485.2 256.2,485.2 "/>
<path style="fill:#ABABAB;stroke:#1B1B1C;stroke-width:3;stroke-miterlimit:10;" d="M208.4,485.7l0.1,0.1H220c0,0,2.9-0.3,3.2-3
	c0-2.7,0-3.8,0-3.8l-0.1-0.1h-11.4c0,0-3,0.4-3.2,3.1C208.4,484.8,208.4,485.7,208.4,485.7z"/>
<path style="fill:#ABABAB;stroke:#1B1B1C;stroke-width:3;stroke-miterlimit:10;" d="M208.4,500.5l0.1,0.1H220c0,0,2.9-0.3,3.2-3
	c0-2.7,0-3.8,0-3.8l-0.1-0.1h-11.4c0,0-3,0.4-3.2,3.1C208.4,499.5,208.4,500.5,208.4,500.5z"/>
<path style="fill:#ABABAB;stroke:#1B1B1C;stroke-width:3;stroke-miterlimit:10;" d="M223.2,493.1l-0.1,0.1h-11.5c0,0-2.9-0.3-3.2-3
	c0-2.7,0-3.8,0-3.8l0.1-0.1H220c0,0,3,0.4,3.2,3.1C223.2,492.2,223.2,493.1,223.2,493.1z"/>
<g>
	<g>
		<path style="fill:#1B1C1C;" d="M349.2,452.3c1.6,1.9,3.4,3.5,5.7,4.5c0.7,0.3,2.3-0.7,1.1-1.2c-2.1-0.8-3.7-2.3-5.1-4.1
			C350.5,450.9,348.6,451.6,349.2,452.3L349.2,452.3z"/>
	</g>
</g>
<g>
	<g>
		<path style="fill:#1B1C1C;" d="M391.8,454c0.2-3.4,1.2-6.6,3-9.4c0.1-0.2-1.6-0.1-1.9,0.4c-1.8,2.9-2.8,6.1-3,9.6
			C389.8,454.7,391.8,454.5,391.8,454L391.8,454z"/>
	</g>
</g>
<circle style="fill:#FFFFFF;" cx="361.5" cy="454.9" r="0.4"/>
<circle style="fill:#FFFFFF;" cx="363" cy="454.9" r="0.4"/>
<circle style="fill:#FFFFFF;" cx="361.8" cy="456.5" r="0.4"/>
<circle style="fill:#FFFFFF;" cx="363.7" cy="457.4" r="0.4"/>
<circle style="fill:#FFFFFF;" cx="363.8" cy="456" r="0.4"/>
<circle style="fill:#FFFFFF;" cx="371.3" cy="454.2" r="0.4"/>
<circle style="fill:#FFFFFF;" cx="373.2" cy="453.6" r="0.4"/>
<circle style="fill:#FFFFFF;" cx="374" cy="455" r="0.4"/>
<circle style="fill:#FFFFFF;" cx="371" cy="455.9" r="0.4"/>
<circle style="fill:#FFFFFF;" cx="372.4" cy="455.5" r="0.4"/>
<circle style="fill:#FFFFFF;" cx="372.1" cy="457.3" r="0.4"/>
<circle style="fill:#FFFFFF;" cx="373.8" cy="456.5" r="0.4"/>
<circle style="fill:#FFFFFF;" cx="380.8" cy="453.5" r="0.4"/>
<circle style="fill:#FFFFFF;" cx="382.6" cy="452.6" r="0.4"/>
<circle style="fill:#FFFFFF;" cx="381.4" cy="455.2" r="0.4"/>
<circle style="fill:#FFFFFF;" cx="382.2" cy="453.8" r="0.4"/>
<circle style="fill:#FFFFFF;" cx="383.7" cy="453.7" r="0.4"/>
<circle style="fill:#FFFFFF;" cx="382.8" cy="455.4" r="0.4"/>
<circle style="fill:#FFFFFF;" cx="382.3" cy="456.6" r="0.4"/>
<circle style="fill:#FFFFFF;" cx="384.2" cy="455.3" r="0.4"/>
</svg>
