<?xml version="1.0" encoding="utf-8"?>
<!-- Generator: Adobe Illustrator 18.0.0, SVG Export Plug-In . SVG Version: 6.00 Build 0)  -->
<!DOCTYPE svg PUBLIC "-//W3C//DTD SVG 1.1//EN" "http://www.w3.org/Graphics/SVG/1.1/DTD/svg11.dtd">
<svg version="1.1" id="Layer_1" xmlns="http://www.w3.org/2000/svg" xmlns:xlink="http://www.w3.org/1999/xlink" x="0px" y="0px"
	 viewBox="0 0 29.748 29.748" style="enable-background:new 0 0 29.748 29.748;" xml:space="preserve">
<g id="instagram">
	<path d="M23.998,0H5.749C2.579,0,0,2.578,0,5.748v6.072v12.178c0,3.17,2.579,5.749,5.749,5.749h18.249
		c3.17,0,5.75-2.579,5.75-5.749V11.821V5.748C29.748,2.578,27.169,0,23.998,0z M25.648,3.429l0.658-0.002v0.655v4.387l-5.027,0.016
		l-0.017-5.043L25.648,3.429z M10.629,11.821c0.952-1.319,2.498-2.183,4.245-2.183c1.748,0,3.293,0.864,4.245,2.183
		c0.622,0.861,0.992,1.913,0.992,3.053c0,2.887-2.35,5.235-5.237,5.235s-5.235-2.348-5.235-5.235
		C9.639,13.734,10.009,12.682,10.629,11.821z M26.85,23.999c0,1.573-1.278,2.85-2.851,2.85H5.749c-1.573,0-2.851-1.277-2.851-2.85
		V11.821H7.34c-0.385,0.943-0.6,1.974-0.6,3.053c0,4.484,3.648,8.135,8.134,8.135c4.485,0,8.134-3.65,8.134-8.135
		c0-1.08-0.217-2.11-0.6-3.053h4.441V23.999z"/>
</g>
</svg>
